<svg version="1.2" xmlns="http://www.w3.org/2000/svg" viewBox="0 0 128 128" width="128" height="128">
	<title>logo</title>
	<style>
		.s0 { fill: none } 
		.s1 { fill: #ee3167 } 
		.s2 { opacity: .64;fill: #0098da } 
		.s3 { fill: #5abae7 } 
	</style>
	<g id="Layer_x0020_1">
		<path fill-rule="evenodd" class="s0" d="m4.1 0h119.8c2.3 0 4.1 1.8 4.1 4.1v119.8c0 2.3-1.8 4.1-4.1 4.1h-119.8c-2.3 0-4.1-1.8-4.1-4.1v-119.8c0-2.3 1.8-4.1 4.1-4.1z"/>
		<path fill-rule="evenodd" class="s1" d="m17.6 65c-0.3-0.7-0.3-1.2 0.1-1.8 14.1-26.3 35.4-42.3 62.2-53.8 0.9-0.4 2.3 0.7 1.9 1.6-4 11.6-6.8 23-8.4 35.1-1.5 11.3-1.9 22.9-0.4 35 1.6 13.7 4.9 25.1 8.8 37.4 0.5 1.4-0.9 2-2 1.5-27.9-13.8-49.1-31.8-62.2-55z"/>
		<path fill-rule="evenodd" class="s2" d="m100.8 89.2c-15.4-4.9-29.2-13.1-41.5-23.9-0.8-0.7-0.7-1.7 0.1-2.4 12.1-11.7 25.9-20.8 41.2-27.2 1.3-0.6 2.4 0.5 2 2-4.3 16.6-5.3 33 0.1 49.4 0.4 1.4-0.7 2.5-1.9 2.1z"/>
		<path fill-rule="evenodd" class="s3" d="m100.8 89.2c-10.1-3.2-19.6-7.8-28.4-13.7-0.6-9.4-0.6-13.6 0.4-24 8.6-6.3 17.9-11.7 27.8-15.8 1.3-0.6 2.4 0.5 2 2-4.3 16.6-5.3 33 0.1 49.4 0.4 1.4-0.7 2.5-1.9 2.1z"/>
	</g>
</svg>