<svg version="1.2" xmlns="http://www.w3.org/2000/svg" viewBox="0 0 799 570" width="799" height="570">
	<title>blob-haikei-4</title>
	<style>
		.s0 { fill: #bdbdbd10 } 
		.s1 { fill: #ffffff } 
		.s2 { fill: #cccccc } 
		.s3 { fill: #ed9da0 } 
		.s4 { fill: #090814 } 
		.s5 { fill: #80ed99 } 
		.s6 { fill:rgb(115, 115, 115) } 
		.s7 { fill: #2f2e41 } 
		.s8 { opacity: .74;fill: #3f3d56 } 
		.s9 { opacity: .74;fill: #ff6584 } 
		.s10 { opacity: .74;fill: #80ed99 } 
		.s11 { fill: #ff6584 } 
		.s12 { opacity: .21;fill: #000000 } 
		.s13 { fill: #e4e4e4 } 
	</style>
	<g>
		<path class="s0" d="m738.8 82c72.6 71 81.3 204.7 12.8 310.1-68.3 105.5-213.8 182.6-348.6 177.5-134.8-5.1-259-92.2-332.3-200-73.3-107.7-95.9-236.1-33.8-302 62-65.9 208.6-69.4 350.4-67 141.8 2.3 278.7 10.5 351.5 81.4z"/>
	</g>
	<g>
		<path class="s1" d="m71.7 269.1c-1.9 0.9-4 1.5-6.1 1.6-2.1 0.2-4.2 0-6.3-0.5-2.1-0.6-4-1.5-5.7-2.7-1.8-1.2-3.3-2.7-4.5-4.5-0.5-0.7 0.6-1.5 1.1-0.8 1.1 1.6 2.5 3.1 4.2 4.2 1.6 1.1 3.4 2 5.3 2.5 1.9 0.5 3.9 0.7 5.9 0.5 1.9-0.2 3.8-0.7 5.6-1.6 0.8-0.4 1.3 0.9 0.5 1.3z"/>
		<path class="s1" d="m58.7 232q1.3-0.3 2.4-0.9 1.1-0.6 2.1-1.4 0.9-0.9 1.6-1.9 0.7-1.1 1.1-2.3c0.3-0.8 1.6-0.2 1.3 0.6q-0.5 1.3-1.3 2.5-0.8 1.1-1.8 2.1-1.1 0.9-2.3 1.6-1.2 0.6-2.6 1-0.1 0-0.3 0-0.1 0-0.2 0-0.1-0.1-0.2-0.2-0.1-0.1-0.2-0.2 0-0.1 0-0.3 0-0.1 0-0.2 0.1-0.2 0.2-0.2 0.1-0.1 0.2-0.2z"/>
		<path class="s2" d="m549.6 441.1h-315.2c-2.8 0-5.6 0.6-8.3 1.7-2.6 1.1-5 2.7-7 4.7-2 2-3.6 4.3-4.6 7-1.1 2.6-1.7 5.4-1.7 8.2q0 1.1 0.1 2.1 0.1 1 0.3 2 0.2 1.1 0.5 2 0.3 1 0.7 2c0.8 2 1.9 3.8 3.2 5.5 1.3 1.7 2.9 3.1 4.7 4.4 1.8 1.2 3.7 2.1 5.8 2.7 2 0.6 4.2 1 6.3 1h315.2q2.9 0 5.6-0.8 2.7-0.7 5.2-2.1 2.4-1.4 4.5-3.4 2-2 3.4-4.4 0.2-0.4 0.4-0.7 0.2-0.4 0.4-0.8 0.1-0.3 0.3-0.7 0.2-0.3 0.3-0.7 0.4-1 0.7-2 0.3-1 0.5-2 0.2-1 0.3-2 0.1-1 0.1-2.1c0-2.8-0.6-5.6-1.7-8.2-1.1-2.7-2.7-5-4.7-7-2-2-4.4-3.6-7-4.7-2.6-1.1-5.4-1.7-8.3-1.7z"/>
		<path fill-rule="evenodd" class="s3" d="m416.3 244.1v54.1h-45.9v-54.1z"/>
		<path class="s2" d="m386.4 209.3h4.8c1.2 0 2.3 0.2 3.4 0.6 1.1 0.5 2 1.1 2.9 1.9 0.8 0.9 1.4 1.8 1.9 2.9 0.4 1.1 0.6 2.2 0.6 3.4h-22.4c0-1.2 0.3-2.3 0.7-3.4 0.4-1.1 1.1-2 1.9-2.9 0.8-0.8 1.8-1.4 2.9-1.9 1-0.4 2.2-0.6 3.3-0.6z"/>
		<path fill-rule="evenodd" class="s3" d="m393.4 259.2c-27.4 0-49.5-22.1-49.5-49.6 0-27.4 22.1-49.6 49.5-49.6 27.5 0 49.6 22.2 49.6 49.6 0 27.5-22.1 49.6-49.6 49.6z"/>
		<path class="s4" d="m338.1 161.9c0.4-5.7 4.2-11.6 16.1-14.6 0 0 20.6-26.3 48.5-12.5 0 0 13.5-2.3 23.5 11.7 0 0 10-5.9 14.2 4.5 0 0 11.6 21.3 7.3 42.9-4.3 21.7-6.5 24.4-6.5 24.4 0 0 5.5-44.8-26-41.7-31.5 3.1-56.9-8-64 16.3-6 20.2-5.2 30.6-5.2 30.6 0 0-19.8-20.1-13.1-35.9 3.4-8.1 4.7-16.9 5.2-25.7z"/>
		<path class="s5" d="m258.6 480.8h274.3c-1.9-20.9-3.1-100.9-3.1-106.2 0-23.2-19-48.6-19-48.6l-6.8-3.8-56.7-17.7-14.7-19.1q-1.2-1.5-2.7-2.7-1.4-1.2-3.1-2-1.7-0.9-3.6-1.3-1.8-0.4-3.7-0.4l-46.4 0.3q-1.6 0.1-3 0.4-1.5 0.2-2.9 0.8-1.5 0.6-2.7 1.4-1.3 0.8-2.4 1.8l-28.8 26.7-42.1 20.2-0.1-0.1-0.5 0.3-6.2 4.5-4 2.9c0 0-10.6 12.7-19 50.7-1.3 5.8-2.2 79.8-2.8 91.9z"/>
		<path class="s2" d="m596.3 470.8q-0.9 0.9-1.9 1.8-3.8 3.4-7.7 6.6-5.9 4.9-12.1 9.6h-369.2q-11.2-8.5-21.7-18z"/>
		<path class="s4" d="m461 475.1h-135.7l2.9-13.7h129.9z"/>
		<path class="s4" d="m583.8 416.2h-35.3q-0.6 0-1.2 0.1-0.6 0.1-1.1 0.4-0.6 0.2-1 0.6-0.5 0.3-0.9 0.8-0.2 0-0.4-0.1-0.2 0-0.3 0-0.2 0-0.4 0-0.2 0-0.4 0c-2.2 0-4.3 0.8-5.9 2.4-1.6 1.6-2.5 3.7-2.5 5.9 0 2.3 0.9 4.4 2.5 6 1.6 1.5 3.7 2.4 5.9 2.4q0.5 0 0.9 0 0.5-0.1 1-0.2 0.4-0.1 0.9-0.3 0.4-0.1 0.9-0.3l0.5 7.2 2.4 28.7q0 0.1 0.1 0.2 0 0.2 0.1 0.3 0 0.1 0.1 0.2 0.1 0.2 0.1 0.3 0.4 0.6 0.9 1.2 0.5 0.5 1.2 0.9 0.6 0.4 1.3 0.6 0.7 0.2 1.5 0.2h22.9q0.8 0 1.5-0.2 0.7-0.2 1.3-0.6 0.7-0.4 1.2-0.9 0.5-0.6 0.9-1.2 0-0.1 0.1-0.3 0.1-0.1 0.1-0.2 0.1-0.1 0.1-0.3 0.1-0.1 0.1-0.2l6.2-46.5c0.2-0.8 0.3-1.7 0.1-2.5-0.1-0.9-0.4-1.7-1-2.4-0.5-0.7-1.1-1.3-1.9-1.6-0.8-0.4-1.6-0.6-2.5-0.6zm-41 16.1c-1.6 0-3.1-0.6-4.2-1.7-1.1-1.1-1.8-2.7-1.8-4.3 0-1.5 0.7-3.1 1.8-4.2 1.1-1.1 2.6-1.7 4.2-1.7q0.2 0 0.3 0-0.1 0.3-0.1 0.7 0 0.4 0 0.8 0 0.3 0 0.7 0.1 0.4 0.2 0.7l2.5 8.2q-0.3 0.2-0.6 0.4-0.4 0.1-0.8 0.2-0.3 0.1-0.7 0.2-0.4 0-0.8 0z"/>
		<path class="s6" d="m504 264.2h-223.5q-1.5 0-2.8 0.5-1.3 0.6-2.3 1.6-1.1 1-1.6 2.4-0.6 1.3-0.6 2.7v151q0 1.5 0.6 2.8 0.5 1.3 1.6 2.4 1 1 2.3 1.5 1.3 0.6 2.8 0.6h223.5q1.5 0 2.8-0.6 1.3-0.5 2.4-1.5 1-1.1 1.5-2.4 0.6-1.3 0.6-2.8v-151q0-1.4-0.6-2.7-0.5-1.4-1.5-2.4-1.1-1-2.4-1.6-1.3-0.5-2.8-0.5z"/>
		<path class="s4" d="m417.4 385.2h-52.3q-0.5 0-1 0.2-0.5 0.2-0.9 0.6-0.4 0.4-0.6 0.9-0.3 0.5-0.3 1.1v82.7h57.9v-82.7q0-0.6-0.2-1.1-0.2-0.5-0.6-0.9-0.4-0.4-0.9-0.6-0.5-0.2-1.1-0.2zm-25.9 47q-1.3 0-2.4-0.5-1.1-0.5-2-1.4-0.9-0.8-1.3-2-0.5-1.1-0.5-2.3v-9.6c0-1.6 0.7-3.1 1.8-4.3 1.2-1.1 2.7-1.8 4.4-1.8 1.6 0 3.1 0.7 4.3 1.8 1.2 1.2 1.8 2.7 1.8 4.3v9.6q0 1.2-0.4 2.3-0.5 1.2-1.4 2-0.9 0.9-2 1.4-1.1 0.5-2.3 0.5z"/>
		<path class="s6" d="m362.2 468v8q0 0.3 0.1 0.6 0.1 0.3 0.3 0.5 0.2 0.2 0.5 0.3 0.3 0.2 0.6 0.2h55.2q0.3 0 0.5-0.2 0.3-0.1 0.6-0.3 0.2-0.2 0.3-0.5 0.1-0.3 0.1-0.6v-8z"/>
		<path fill-rule="evenodd" class="s7" d="m499.3 420.9c-2 0-3.5-1.6-3.5-3.6 0-1.9 1.5-3.5 3.5-3.5 1.9 0 3.5 1.6 3.5 3.5 0 2-1.6 3.6-3.5 3.6z"/>
		<path class="s7" d="m308.7 412.2q-0.2 0-0.5 0.1-0.2 0.1-0.4 0.3-0.1 0.1-0.2 0.4-0.1 0.2-0.1 0.4v6.4c0 0.3 0.1 0.6 0.3 0.9 0.3 0.2 0.6 0.3 0.9 0.3 0.3 0 0.6-0.1 0.9-0.3 0.2-0.3 0.3-0.6 0.3-0.9v-6.4q0-0.2-0.1-0.4-0.1-0.3-0.2-0.4-0.2-0.2-0.4-0.3-0.3-0.1-0.5-0.1z"/>
		<path class="s7" d="m315.4 412.2q-0.2 0-0.5 0.1-0.2 0.1-0.4 0.3-0.1 0.1-0.2 0.4-0.1 0.2-0.1 0.4v6.4c0 0.3 0.1 0.6 0.3 0.9 0.3 0.2 0.6 0.3 0.9 0.3 0.3 0 0.6-0.1 0.9-0.3 0.2-0.3 0.3-0.6 0.3-0.9v-6.4q0-0.2-0.1-0.4 0-0.3-0.2-0.4-0.2-0.2-0.4-0.3-0.2-0.1-0.5-0.1z"/>
		<path class="s7" d="m322.1 412.2q-0.2 0-0.5 0.1-0.2 0.1-0.4 0.3-0.1 0.1-0.2 0.4-0.1 0.2-0.1 0.4v6.4c0 0.3 0.1 0.6 0.3 0.9 0.3 0.2 0.6 0.3 0.9 0.3 0.3 0 0.7-0.1 0.9-0.3 0.2-0.3 0.4-0.6 0.4-0.9v-6.4q0-0.2-0.1-0.4-0.1-0.3-0.3-0.4-0.2-0.2-0.4-0.3-0.2-0.1-0.5-0.1z"/>
		<path class="s7" d="m328.8 412.2q-0.2 0-0.5 0.1-0.2 0.1-0.4 0.3-0.1 0.1-0.2 0.4-0.1 0.2-0.1 0.4v6.4c0 0.3 0.1 0.6 0.3 0.9 0.3 0.2 0.6 0.3 0.9 0.3 0.3 0 0.7-0.1 0.9-0.3 0.2-0.3 0.4-0.6 0.4-0.9v-6.4q0-0.2-0.1-0.4-0.1-0.3-0.3-0.4-0.2-0.2-0.4-0.3-0.2-0.1-0.5-0.1z"/>
		<path fill-rule="evenodd" class="s3" d="m334.2 471.5c-10.4 0-18.7-8.4-18.7-18.7 0-10.3 8.3-18.7 18.7-18.7 10.3 0 18.6 8.4 18.6 18.7 0 10.3-8.3 18.7-18.6 18.7z"/>
		<path fill-rule="evenodd" class="s3" d="m464.6 475.1c-10.3 0-18.7-8.4-18.7-18.7 0-10.3 8.4-18.7 18.7-18.7 10.3 0 18.7 8.4 18.7 18.7 0 10.3-8.4 18.7-18.7 18.7z"/>
		<path class="s5" d="m711.3 185.5c-1.8-3.1-4-6.4-7.5-7.3-3.9-1.2-8 1.1-11.5 3.4q-3.8 2.5-7.6 5.1-3.8 2.7-7.6 5.4-3.7 2.8-7.3 5.6-3.7 2.9-7.3 5.8l0.1 0.2c7.4-0.6 13.5 19.2 20.9 18.7 5.4-0.4 12.2-21.1 16.9-23.6 1.8-1 3.6-2.3 5.6-2.3 2.5-0.2 4.7 1.6 6.5 3.5 10.2 10.9 13.2 27.6 24.7 37.2q-2.7-6.7-5.7-13.3-3-6.6-6.2-13.1-3.3-6.5-6.8-12.8-3.5-6.3-7.2-12.5z"/>
		<path class="s6" d="m731 212q8.1 14.7 17.2 28.7v0.1q0 0.4-0.1 0.9-1.1-1.6-2.2-3.3-8.1-12.9-15.5-26.2-3.5-6.3-6.8-12.7-2.6-5-5-10-0.7-1.5-1.4-2.9c-1.1-2.3-2.1-4.6-3.2-6.8-1.3-2.6-2.9-5.3-5.2-7q-0.4-0.3-0.9-0.5-0.4-0.3-0.9-0.5-0.4-0.1-0.9-0.3-0.5-0.1-1-0.1-0.7 0-1.4 0.1-0.7 0.1-1.4 0.3-0.7 0.2-1.3 0.5-0.6 0.2-1.2 0.6-4.6 2.4-9 5.1-4.4 2.6-8.6 5.6-4.3 2.9-8.3 6.1-4.1 3.1-7.9 6.5-3.9 3.4-7.5 7-3.7 3.7-7.1 7.5-3.5 3.8-6.7 7.8-3.2 4-6.1 8.2c-0.3 0.4-0.9 0-0.6-0.3q1.4-2.1 2.9-4.1 4.7-6.2 9.9-12 5.2-5.7 10.9-11 5.6-5.3 11.7-10.1 6.2-4.8 12.7-9 4.4-2.9 8.9-5.4 2.3-1.3 4.6-2.6 0.6-0.3 1.2-0.5 0.6-0.3 1.2-0.5 0.6-0.2 1.3-0.3 0.6-0.1 1.3-0.2c5.9-0.1 9 6.7 11.1 11.2q1 2.2 2 4.3 3.9 8.1 8.1 16.1 2.5 4.9 5.2 9.7z"/>
		<path class="s6" d="m665.4 192.9q-0.5-0.6-1-1.2c-2.8-3-5.7-6-9.5-7.8q-0.7-0.3-1.4-0.5-0.7-0.3-1.4-0.4-0.7-0.2-1.5-0.3-0.7-0.1-1.5-0.1-0.7 0-1.5 0.1-0.8 0.1-1.5 0.3-0.8 0.1-1.5 0.4-0.7 0.2-1.4 0.5-1.4 0.6-2.7 1.2-1.5 0.8-2.9 1.6-2.7 1.5-5.4 3.1-5.3 3.3-10.2 7.1-2.6 1.9-5.1 4-2.2 1.9-4.4 4c-0.4 0.3-0.8-0.2-0.5-0.5q0.6-0.5 1.2-1.1 1.6-1.5 3.3-2.9 3.1-2.6 6.4-5.1 5.1-3.7 10.5-7 2.8-1.6 5.5-3.1 0.9-0.5 1.8-0.9 0.4-0.2 0.9-0.5 0.5-0.2 1.1-0.4 0.5-0.2 1-0.4 0.5-0.2 1-0.3 0.8-0.3 1.5-0.4 0.8-0.2 1.5-0.3 0.8-0.1 1.6 0 0.8 0 1.5 0.1 0.8 0.1 1.5 0.2 0.8 0.2 1.5 0.5 0.7 0.2 1.4 0.5 0.6 0.3 1.3 0.7c3.7 2.1 6.6 5.3 9.4 8.4 0.3 0.3-0.2 0.8-0.5 0.5z"/>
		<path class="s5" d="m638.3 207.5q-0.4 0-0.7 0-0.4 0-0.7-0.1-0.3-0.1-0.6-0.3-0.4-0.1-0.7-0.3c-2-1.6-1.9-5.3 0.2-11.4q0.5-1.3 1.1-2.4 0.7-1.2 1.6-2.1 0.9-1 2-1.8 1.1-0.7 2.3-1.2 1.1-0.6 2.3-0.8 1.2-0.3 2.5-0.3 1.2 0 2.4 0.3 1.3 0.2 2.4 0.7 0.4 0.2 0.8 0.4 0.6 0.3 1.3 0.7 0.6 0.4 1.2 0.9 0.6 0.4 1.2 0.9 0.6 0.5 1.2 1 0.5 0.4 1 0.8 0.5 0.4 1 0.8 0.5 0.3 1 0.7 0.5 0.3 1.1 0.7l0.5 0.3-0.5 0.3c-11.6 8.2-19.5 12.2-23.9 12.2z"/>
		<path class="s6" d="m683 158.7c-1.9 0-3.8-0.3-5.5-0.9-1.8-0.7-3.5-1.6-5-2.8-1.4-1.2-2.7-2.7-3.6-4.3-1-1.6-1.7-3.4-2.1-5.3-6.5 1.3-11.6 6.5-12.9 13-1.3 6.6 1.5 13.3 7 17 5.6 3.7 12.8 3.7 18.4 0 5.5-3.7 8.3-10.4 7-17q-0.4 0.1-0.8 0.2-0.4 0-0.8 0.1-0.4 0-0.9 0-0.4 0-0.8 0z"/>
		<path fill-rule="evenodd" class="s8" d="m184.7 160c-13.6 0-24.6-11-24.6-24.7 0-13.6 11-24.7 24.6-24.7 13.6 0 24.7 11.1 24.7 24.7 0 13.7-11.1 24.7-24.7 24.7z"/>
		<path fill-rule="evenodd" class="s9" d="m209.4 160c-13.7 0-24.7-11-24.7-24.7 0-13.6 11-24.7 24.7-24.7 13.6 0 24.6 11.1 24.6 24.7 0 13.7-11 24.7-24.6 24.7z"/>
		<path fill-rule="evenodd" class="s10" d="m197.2 140.3c-13.6 0-24.6-11-24.6-24.7 0-13.6 11-24.6 24.6-24.6 13.7 0 24.7 11 24.7 24.6 0 13.7-11 24.7-24.7 24.7z"/>
		<path fill-rule="evenodd" class="s6" d="m198.4 128.5l63.3-19.9 0.4 1.3-63.3 20z"/>
		<path class="s11" d="m599.5 41h-0.4q0.5 0 1 0.1 0.5 0.1 0.9 0.2 0.5 0.1 0.9 0.2 0.5 0.2 0.9 0.4h-1.9q-1.5 0-2.8 0.6-1.4 0.6-2.5 1.6-1.1 1.1-1.6 2.5-0.6 1.4-0.6 2.9v20.1q0 1.5 0.6 2.9 0.5 1.3 1.6 2.4 1.1 1.1 2.5 1.7 1.3 0.5 2.8 0.5h1.2q-0.3 0.2-0.7 0.3-0.4 0.1-0.7 0.2-0.4 0-0.8 0.1-0.4 0-0.8 0h0.5q1.6 0 3.1-0.6 1.5-0.7 2.7-1.8 1.2-1.2 1.8-2.7 0.6-1.5 0.6-3.2v-20.1q0-1.6-0.6-3.1-0.6-1.6-1.8-2.7-1.2-1.2-2.7-1.8-1.5-0.6-3.2-0.7z"/>
		<path class="s12" d="m599.5 41h-0.4q0.5 0 1 0.1 0.5 0.1 0.9 0.2 0.5 0.1 0.9 0.2 0.5 0.2 0.9 0.4h-1.9q-1.5 0-2.8 0.6-1.4 0.6-2.5 1.6-1.1 1.1-1.6 2.5-0.6 1.4-0.6 2.9v20.1q0 1.5 0.6 2.9 0.5 1.3 1.6 2.4 1.1 1.1 2.5 1.7 1.3 0.5 2.8 0.5h1.2q-0.3 0.2-0.7 0.3-0.4 0.1-0.7 0.2-0.4 0-0.8 0.1-0.4 0-0.8 0h0.5q1.6 0 3.1-0.6 1.5-0.7 2.7-1.8 1.2-1.2 1.8-2.7 0.6-1.5 0.6-3.2v-20.1q0-1.6-0.6-3.1-0.6-1.6-1.8-2.7-1.2-1.2-2.7-1.8-1.5-0.6-3.2-0.7z"/>
		<path class="s5" d="m601 77.2q-1.5 0-2.9-0.6-1.4-0.6-2.4-1.6-1.1-1.1-1.7-2.5-0.5-1.4-0.5-2.9v-20q0-1.6 0.5-2.9 0.6-1.4 1.7-2.5 1-1.1 2.4-1.6 1.4-0.6 2.9-0.6h1.9q-0.4-0.2-0.9-0.4-0.4-0.2-0.9-0.3-0.5-0.1-0.9-0.1-0.5-0.1-1-0.1h-20q-1.7 0-3.2 0.6-1.5 0.7-2.7 1.8-1.1 1.2-1.8 2.7-0.6 1.6-0.6 3.2v20.1q0 1.6 0.6 3.1 0.7 1.6 1.8 2.7 1.2 1.2 2.7 1.8 1.5 0.7 3.2 0.7h20q0.4 0 0.8-0.1 0.4 0 0.7-0.1 0.4 0 0.8-0.2 0.4-0.1 0.7-0.2z"/>
		<path class="s11" d="m601 77.2q-1.5 0-2.9-0.6-1.4-0.6-2.4-1.6-1.1-1.1-1.7-2.5-0.5-1.4-0.5-2.9v-20q0-1.6 0.5-2.9 0.6-1.4 1.7-2.5 1-1.1 2.4-1.6 1.4-0.6 2.9-0.6h1.9q-0.4-0.2-0.9-0.4-0.4-0.2-0.9-0.3-0.5-0.1-0.9-0.1-0.5-0.1-1-0.1h-20q-1.7 0-3.2 0.6-1.5 0.7-2.7 1.8-1.1 1.2-1.8 2.7-0.6 1.6-0.6 3.2v20.1q0 1.6 0.6 3.1 0.7 1.6 1.8 2.7 1.2 1.2 2.7 1.8 1.5 0.7 3.2 0.7h20q0.4 0 0.8-0.1 0.4 0 0.7-0.1 0.4 0 0.8-0.2 0.4-0.1 0.7-0.2z"/>
		<path fill-rule="evenodd" class="s6" d="m262.1 111.9c-1.6 0-2.9-1.3-2.9-2.9 0-1.6 1.3-2.8 2.9-2.8 1.6 0 2.9 1.2 2.9 2.8 0 1.6-1.3 2.9-2.9 2.9z"/>
		<path class="s6" d="m729.3 249.6c4.2 3 8.2 6 12.9 8.3q-0.2 0.5-0.3 1.1-0.8-0.4-1.7-0.9c-4.7-2.4-8.7-5.8-13.1-8.7q-0.8-0.5-1.7-1-0.8-0.5-1.7-1-0.9-0.4-1.8-0.8-0.9-0.4-1.9-0.7-1-0.3-2-0.5-1-0.2-2-0.3-1-0.2-2-0.2-1.1 0-2.1 0c-11.4 0.6-21.1 7.4-31.7 10.8-5.2 1.7-10.7 2.6-16.1 1.6-5.4-1.1-10.2-4-15-6.6-4.7-2.6-9.9-5.1-15.4-5.1-4.4 0-9.2 1.8-11.6 5.7q-0.1 0.2-0.3 0.3-0.2 0-0.4-0.1-0.2-0.1-0.2-0.3-0.1-0.2 0-0.4 0.2-0.4 0.4-0.7 0.3-0.3 0.5-0.6 0.3-0.3 0.5-0.6 0.3-0.3 0.6-0.6c3.1-2.9 7.7-4.1 11.9-3.8 5.5 0.5 10.5 3.1 15.2 5.7 5.1 2.7 10.2 5.7 16 6.3 5.7 0.6 11.4-0.9 16.7-2.9 10.3-3.9 20.5-10.5 31.9-9.7 5.4 0.3 10 2.7 14.4 5.7z"/>
		<path class="s5" d="m345.3 33.6v1.5q-0.2-0.1-0.4-0.1-0.1 0-0.3 0-0.2 0-0.4-0.1-0.2 0-0.4 0h-7.5v16.2c0 1.2-0.2 2.3-0.7 3.4-0.4 1.1-1.1 2.1-1.9 3-0.9 0.8-1.8 1.5-2.9 1.9-1.1 0.5-2.3 0.7-3.5 0.7h-11.1v2.5q0 0.4 0.1 0.7 0 0.4 0.1 0.8 0 0.3 0.1 0.7 0.2 0.3 0.3 0.7h-1.5q-0.2-0.4-0.2-0.7-0.1-0.4-0.2-0.7-0.1-0.4-0.1-0.8 0-0.3 0-0.7v-2.5h-6.1v-1.4h6.1v-16.2c0-1.2 0.2-2.3 0.7-3.4 0.4-1.1 1.1-2.1 1.9-3 0.9-0.8 1.8-1.5 2.9-1.9 1.1-0.5 2.3-0.7 3.5-0.7h11.1v-2.5h1.4v2.5h7.5q0.2 0 0.4 0 0.2 0 0.4 0 0.2 0 0.3 0.1 0.2 0 0.4 0z"/>
		<path class="s6" d="m327.3 22h-20c-1.2 0-2.4 0.2-3.5 0.7-1.1 0.4-2.1 1.1-2.9 1.9-0.8 0.9-1.5 1.9-1.9 3-0.5 1.1-0.7 2.2-0.7 3.4v20.1c0 1.2 0.2 2.3 0.7 3.4 0.4 1.1 1.1 2.1 1.9 2.9 0.8 0.9 1.8 1.5 2.9 2 1.1 0.5 2.3 0.7 3.5 0.7h20c1.2 0 2.4-0.2 3.5-0.7 1.1-0.5 2-1.1 2.9-2 0.8-0.8 1.5-1.8 1.9-2.9 0.5-1.1 0.7-2.2 0.7-3.4v-20.1c0-1.2-0.2-2.4-0.7-3.5-0.4-1-1.1-2-1.9-2.9-0.9-0.8-1.9-1.5-2.9-1.9-1.1-0.5-2.3-0.7-3.5-0.7zm7.6 29.1q0 1.5-0.6 2.9-0.6 1.4-1.6 2.4-1.1 1.1-2.5 1.7-1.4 0.6-2.9 0.6h-20q-1.5 0-2.9-0.6-1.4-0.6-2.5-1.7-1-1-1.6-2.4-0.6-1.4-0.6-2.9v-20.1q0-1.5 0.6-2.9 0.6-1.4 1.6-2.4 1.1-1.1 2.5-1.7 1.4-0.6 2.9-0.6h20q1.5 0 2.9 0.6 1.4 0.6 2.5 1.6 1 1.1 1.6 2.5 0.6 1.4 0.6 2.9z"/>
		<path class="s6" d="m314.8 58.7v1.4h1.4v-1.4zm0 0v1.4h1.5v-1.4zm30.5-25.1q-0.2 0-0.4 0-0.2-0.1-0.4-0.1-0.1 0-0.3 0-0.2 0-0.4 0h-20c-1.2 0-2.4 0.2-3.5 0.7-1.1 0.4-2.1 1.1-2.9 1.9-0.8 0.9-1.5 1.9-2 3-0.4 1.1-0.6 2.2-0.6 3.4v20.1q0 0.3 0 0.7 0 0.4 0.1 0.8 0 0.3 0.1 0.7 0.1 0.3 0.2 0.7 0.5 1.3 1.3 2.5 0.9 1.1 2 1.9 1.2 0.8 2.5 1.3 1.4 0.4 2.8 0.4h20c1.2 0 2.4-0.2 3.5-0.7 1-0.4 2-1.1 2.9-1.9 0.8-0.9 1.5-1.9 1.9-3 0.5-1.1 0.7-2.2 0.7-3.4v-20.1q0-1.6-0.5-3.1-0.6-1.5-1.6-2.7-1.1-1.2-2.5-2-1.3-0.8-2.9-1.1zm6.1 29q0 1.5-0.6 2.9-0.6 1.4-1.6 2.4-1.1 1.1-2.5 1.7-1.4 0.6-2.9 0.6h-20q-1.5 0-2.9-0.6-1.4-0.6-2.5-1.7-1.1-1-1.6-2.4-0.6-1.4-0.6-2.9v-20.1q0-1.5 0.6-2.9 0.5-1.4 1.6-2.4 1.1-1.1 2.5-1.7 1.4-0.6 2.9-0.6h20q1.5 0 2.9 0.6 1.4 0.6 2.5 1.7 1 1 1.6 2.4 0.6 1.4 0.6 2.9zm-36.6-3.9v1.4h1.4v-1.4z"/>
		<path class="s5" d="m160.4 207.5h-70.3q-0.3 0-0.7 0.2-0.3 0.1-0.6 0.4-0.2 0.2-0.4 0.6-0.1 0.3-0.1 0.7v4.1q0.9 3.4 1.8 6.7 1 3.3 2 6.6 1.1 3.2 2.2 6.5 1.2 3.2 2.4 6.4h63.7q0.4 0 0.7-0.1 0.3-0.1 0.6-0.4 0.3-0.3 0.4-0.6 0.1-0.3 0.1-0.7v-28.5q0-0.4-0.1-0.7-0.1-0.4-0.4-0.6-0.3-0.3-0.6-0.4-0.3-0.2-0.7-0.2z"/>
		<path class="s13" d="m153.7 249h-53.2q0.9 2.2 1.9 4.4h51.3c2.9 0.1 2.9-4.4 0-4.4z"/>
		<path class="s13" d="m153.7 259.2h-48.6q1 2.2 2.2 4.4h46.4c2.9 0 2.9-4.5 0-4.4z"/>
		<path class="s13" d="m153.7 269.3h-43.4q1.2 2.3 2.4 4.5h41c2.9 0 2.9-4.5 0-4.5z"/>
		<path class="s6" d="m546.4 41h-0.4q0.5 0 1 0.1 0.4 0.1 0.9 0.2 0.5 0.1 0.9 0.2 0.4 0.2 0.9 0.4h-1.9q-1.5 0-2.9 0.6-1.4 0.6-2.4 1.6-1.1 1.1-1.7 2.5-0.6 1.4-0.6 2.9v20.1q0 1.5 0.6 2.9 0.6 1.3 1.7 2.4 1 1.1 2.4 1.7 1.4 0.5 2.9 0.5h1.2q-0.4 0.2-0.7 0.3-0.4 0.1-0.8 0.2-0.4 0-0.7 0.1-0.4 0-0.8 0h0.4q1.7 0 3.2-0.6 1.5-0.7 2.7-1.8 1.1-1.2 1.8-2.7 0.6-1.5 0.6-3.2v-20.1q0-1.6-0.6-3.1-0.7-1.6-1.8-2.7-1.2-1.2-2.7-1.8-1.5-0.6-3.2-0.7z"/>
		<path class="s12" d="m546.4 41h-0.4q0.5 0 1 0.1 0.4 0.1 0.9 0.2 0.5 0.1 0.9 0.2 0.4 0.2 0.9 0.4h-1.9q-1.5 0-2.9 0.6-1.4 0.6-2.4 1.6-1.1 1.1-1.7 2.5-0.6 1.4-0.6 2.9v20.1q0 1.5 0.6 2.9 0.6 1.3 1.7 2.4 1 1.1 2.4 1.7 1.4 0.5 2.9 0.5h1.2q-0.4 0.2-0.7 0.3-0.4 0.1-0.8 0.2-0.4 0-0.7 0.1-0.4 0-0.8 0h0.4q1.7 0 3.2-0.6 1.5-0.7 2.7-1.8 1.1-1.2 1.8-2.7 0.6-1.5 0.6-3.2v-20.1q0-1.6-0.6-3.1-0.7-1.6-1.8-2.7-1.2-1.2-2.7-1.8-1.5-0.6-3.2-0.7z"/>
		<path class="s5" d="m493.3 41h-0.4q0.4 0 0.9 0.1 0.5 0.1 0.9 0.2 0.5 0.1 1 0.2 0.4 0.2 0.8 0.4h-1.8q-1.5 0-2.9 0.6-1.4 0.6-2.5 1.6-1 1.1-1.6 2.5-0.6 1.4-0.6 2.9v20.1q0 1.5 0.6 2.9 0.6 1.3 1.6 2.4 1.1 1.1 2.5 1.7 1.4 0.5 2.9 0.5h1.2q-0.4 0.2-0.8 0.3-0.3 0.1-0.7 0.2-0.4 0-0.8 0.1-0.4 0-0.7 0h0.4q1.6 0 3.1-0.6 1.6-0.7 2.7-1.8 1.2-1.2 1.8-2.7 0.7-1.5 0.7-3.2v-20.1q0-1.6-0.7-3.1-0.6-1.6-1.8-2.7-1.1-1.2-2.7-1.8-1.5-0.6-3.1-0.7z"/>
		<path class="s12" d="m493.3 41h-0.4q0.4 0 0.9 0.1 0.5 0.1 0.9 0.2 0.5 0.1 1 0.2 0.4 0.2 0.8 0.4h-1.8q-1.5 0-2.9 0.6-1.4 0.6-2.5 1.6-1 1.1-1.6 2.5-0.6 1.4-0.6 2.9v20.1q0 1.5 0.6 2.9 0.6 1.3 1.6 2.4 1.1 1.1 2.5 1.7 1.4 0.5 2.9 0.5h1.2q-0.4 0.2-0.8 0.3-0.3 0.1-0.7 0.2-0.4 0-0.8 0.1-0.4 0-0.7 0h0.4q1.6 0 3.1-0.6 1.6-0.7 2.7-1.8 1.2-1.2 1.8-2.7 0.7-1.5 0.7-3.2v-20.1q0-1.6-0.7-3.1-0.6-1.6-1.8-2.7-1.1-1.2-2.7-1.8-1.5-0.6-3.1-0.7z"/>
		<path class="s5" d="m494.7 77.2q-1.5 0-2.8-0.6-1.4-0.6-2.5-1.6-1.1-1.1-1.6-2.5-0.6-1.4-0.6-2.9v-20q0-1.6 0.6-2.9 0.5-1.4 1.6-2.5 1.1-1.1 2.5-1.6 1.3-0.6 2.8-0.6h1.9q-0.4-0.2-0.9-0.4-0.4-0.2-0.9-0.3-0.4-0.1-0.9-0.1-0.5-0.1-1-0.1h-20q-1.7 0-3.2 0.6-1.5 0.7-2.7 1.8-1.1 1.2-1.8 2.7-0.6 1.6-0.6 3.2v20.1q0 1.6 0.6 3.1 0.7 1.6 1.8 2.7 1.2 1.2 2.7 1.8 1.5 0.7 3.2 0.7h20q0.4 0 0.8-0.1 0.4 0 0.8-0.1 0.3 0 0.7-0.2 0.4-0.1 0.7-0.2z"/>
		<path class="s6" d="m547.9 77.2q-1.5 0-2.9-0.6-1.4-0.6-2.5-1.6-1-1.1-1.6-2.5-0.6-1.4-0.6-2.9v-20q0-1.6 0.6-2.9 0.6-1.4 1.6-2.5 1.1-1.1 2.5-1.6 1.4-0.6 2.9-0.6h1.9q-0.5-0.2-0.9-0.4-0.5-0.2-0.9-0.3-0.5-0.1-1-0.1-0.4-0.1-0.9-0.1h-20.1q-1.6 0-3.1 0.6-1.6 0.7-2.7 1.8-1.2 1.2-1.8 2.7-0.7 1.6-0.7 3.2v20.1q0 1.6 0.7 3.1 0.6 1.6 1.8 2.7 1.1 1.2 2.7 1.8 1.5 0.7 3.1 0.7h20.1q0.4 0 0.7-0.1 0.4 0 0.8-0.1 0.4 0 0.7-0.2 0.4-0.1 0.8-0.2z"/>
		<path class="s2" d="m546.4 88.3l-7-10.5-5.2-7.7c-0.3-0.5-0.7-0.8-1.2-1.1-0.5-0.2-1-0.2-1.5-0.2-0.6 0.1-1.1 0.3-1.5 0.7-0.4 0.3-0.7 0.8-0.9 1.3l-2.1 7-4.4 13.9c-0.2 0.6-0.2 1.2 0 1.8 0.2 0.5 0.5 1 1 1.4 0.5 0.3 1 0.5 1.6 0.6 0.6 0 1.2-0.2 1.7-0.5l1.5-0.9q0.5-0.3 1-0.3 0.6-0.1 1.1 0.2 0.5 0.2 0.8 0.7 0.3 0.5 0.4 1l1.4 15.5q0 0.5 0.3 1 0.2 0.5 0.6 0.8 0.4 0.4 0.9 0.6 0.5 0.2 1 0.2 0.1 0 0.3 0l2.1-0.2q0.6-0.1 1.1-0.4 0.5-0.2 0.9-0.7 0.3-0.4 0.5-0.9 0.2-0.6 0.1-1.2l-1.4-15.9q-0.1-0.6 0.2-1.1 0.2-0.5 0.7-0.9 0.4-0.3 1-0.3 0.6-0.1 1.1 0.1l0.3 0.2c0.6 0.3 1.2 0.3 1.8 0.2 0.6-0.1 1.2-0.5 1.6-1 0.4-0.4 0.6-1 0.7-1.6 0-0.7-0.2-1.3-0.5-1.8z"/>
		<path class="s5" d="m494.7 77.2q-1.5 0-2.8-0.6-1.4-0.6-2.5-1.6-1.1-1.1-1.6-2.5-0.6-1.4-0.6-2.9v-20q0-1.6 0.6-2.9 0.5-1.4 1.6-2.5 1.1-1.1 2.5-1.6 1.3-0.6 2.8-0.6h1.9q-0.4-0.2-0.9-0.4-0.4-0.2-0.9-0.3-0.4-0.1-0.9-0.1-0.5-0.1-1-0.1h-20q-1.7 0-3.2 0.6-1.5 0.7-2.7 1.8-1.1 1.2-1.8 2.7-0.6 1.6-0.6 3.2v20.1q0 1.6 0.6 3.1 0.7 1.6 1.8 2.7 1.2 1.2 2.7 1.8 1.5 0.7 3.2 0.7h20q0.4 0 0.8-0.1 0.4 0 0.8-0.1 0.3 0 0.7-0.2 0.4-0.1 0.7-0.2z"/>
	</g>
</svg>