<svg version="1.2" xmlns="http://www.w3.org/2000/svg" viewBox="0 0 860 100" width="860" height="100">
	<title>New Project</title>
	<style>
		.s0 { fill: #ffffff } 
	</style>
	<path id="Volodymyr Vasko Portfolio" class="s0" aria-label="Volodymyr Vasko Portfolio"  d="m55.6 31.3l-13.1 30.5-13-30.5h-10.7l18.4 42.7h9.8l18.5-42.7zm25.8 43.2c10.5 0 18-7 18-16.9 0-9.9-7.5-16.9-18-16.9-10.4 0-18 7-18 16.9 0 9.9 7.6 16.9 18 16.9zm0-7.8c-4.7 0-8.4-3.4-8.4-9.1 0-5.7 3.7-9.1 8.4-9.1 4.8 0 8.4 3.4 8.4 9.1 0 5.7-3.6 9.1-8.4 9.1zm24.4 7.3h9.5v-45.3h-9.5zm34 0.5c10.4 0 17.9-7 17.9-16.9 0-9.9-7.5-16.9-17.9-16.9-10.5 0-18.1 7-18.1 16.9 0 9.9 7.6 16.9 18.1 16.9zm0-7.8c-4.8 0-8.5-3.4-8.5-9.1 0-5.6 3.7-9.1 8.5-9.1 4.7 0 8.3 3.5 8.3 9.1 0 5.7-3.6 9.1-8.3 9.1zm48.2-37.9v15.9c-2.4-2.7-5.8-4-9.8-4-9.3 0-16.4 6.6-16.4 16.9 0 10.3 7.1 16.9 16.4 16.9 4.4 0 7.8-1.4 10.2-4.2v3.7h9.1v-45.2zm-8.2 37.9c-4.7 0-8.4-3.4-8.4-9.1 0-5.6 3.7-9.1 8.4-9.1 4.7 0 8.4 3.5 8.4 9.1 0 5.7-3.7 9.1-8.4 9.1zm49.9-25.5l-9.2 22.3-9.2-22.3h-9.9l14.3 33.1-0.2 0.3c-1.3 2.9-2.7 4.1-5.3 4.1-1.9 0-3.9-0.8-5.4-2.1l-3.5 6.8c2.2 1.9 5.8 3 9.2 3 5.9 0 10.4-2.4 13.6-10.3l14.8-34.9zm55.1-0.5c-5 0-9.2 2-11.9 5.4-2.3-3.6-6.2-5.4-10.8-5.4-4.2 0-7.8 1.5-10.3 4.3v-3.8h-9.1v32.8h9.6v-16.4c0-5.9 3-8.6 7.2-8.6 3.9 0 6.2 2.4 6.2 7.7v17.3h9.5v-16.4c0-5.9 3-8.6 7.3-8.6 3.8 0 6.2 2.4 6.2 7.7v17.3h9.5v-18.8c0-10-5.6-14.5-13.4-14.5zm44.7 0.5l-9.2 22.3-9.2-22.3h-9.9l14.3 33.1-0.2 0.3c-1.2 2.9-2.7 4.1-5.3 4.1-1.9 0-3.9-0.8-5.4-2.1l-3.5 6.8c2.2 1.9 5.8 3 9.2 3 5.9 0 10.4-2.4 13.6-10.3l14.8-34.9zm22.1 4.4v-4.4h-9v32.8h9.5v-15.5c0-6.2 3.4-9.1 8.7-9.1 0.7 0 1.3 0.1 2.1 0.1v-8.8c-5 0-8.9 1.7-11.3 4.9zm66.4-14.3l-13.2 30.5-13-30.5h-10.6l18.4 42.7h9.7l18.5-42.7zm23.5 9.4c-5.2 0-10.5 1.4-14.1 4l3.4 6.6c2.4-1.8 6-3 9.4-3 5.2 0 7.6 2.4 7.6 6.5h-7.6c-10 0-14.1 4-14.1 9.8 0 5.7 4.6 9.9 12.3 9.9 4.8 0 8.2-1.6 10-4.5v4h8.9v-18.7c0-9.9-5.8-14.6-15.8-14.6zm-0.7 27.4c-3.4 0-5.4-1.6-5.4-3.9 0-2.2 1.4-3.9 5.9-3.9h6.5v3.4c-1.1 3-3.8 4.4-7 4.4zm36.2 6.4c9.8 0 15.5-4.3 15.5-10.4 0-12.9-19.9-7.5-19.9-13.1 0-1.7 1.9-3.1 6.1-3.1 3 0 6.2 0.6 9.5 2.5l3.2-6.8c-3.2-1.8-8.2-2.9-12.7-2.9-9.6 0-15.2 4.4-15.2 10.6 0 13.2 19.9 7.7 19.9 13 0 1.9-1.7 3-6.1 3-4 0-8.5-1.3-11.4-3.1l-3.2 6.8c3.1 2 8.7 3.5 14.3 3.5zm45.8-0.5h11.5l-14.9-18.9 13.7-13.9h-11.4l-13.9 13.2v-25.6h-9.5v45.2h9.5v-8.3l4.6-4.5zm30 0.5c10.4 0 18-7.1 18-16.9 0-9.9-7.6-16.9-18-16.9-10.4 0-18 7-18 16.9 0 9.8 7.6 16.9 18 16.9zm0-7.9c-4.7 0-8.4-3.4-8.4-9 0-5.7 3.7-9.1 8.4-9.1 4.8 0 8.4 3.4 8.4 9.1 0 5.6-3.6 9-8.4 9zm60.2-35.3h-16v42.7h4.5v-13.5h11.5c10.8 0 17.4-5.5 17.4-14.6 0-9.1-6.6-14.6-17.4-14.6zm-0.2 25.2h-11.3v-21.3h11.3c8.6 0 13.1 3.9 13.1 10.7 0 6.7-4.5 10.6-13.1 10.6zm39.4 17.8c9.4 0 16.3-6.9 16.3-16.4 0-9.5-6.9-16.3-16.3-16.3-9.4 0-16.4 6.8-16.4 16.3 0 9.5 7 16.4 16.4 16.4zm0-3.9c-6.9 0-12-5-12-12.5 0-7.5 5.1-12.5 12-12.5 6.8 0 11.9 5 11.9 12.5 0 7.5-5.1 12.5-11.9 12.5zm29.3-22.2v-6.3h-4.2v32.1h4.3v-16.4c0-7.5 4.1-11.8 10.8-11.8 0.3 0 0.7 0 1.1 0v-4.2c-5.9 0-10 2.3-12 6.6zm36.6 20.7c-1.3 1.1-3 1.7-4.8 1.7-3.6 0-5.6-2.1-5.6-5.9v-19.2h9.8v-3.6h-9.8v-7h-4.3v7h-5.7v3.6h5.7v19.4c0 6 3.4 9.4 9.4 9.4 2.5 0 5.1-0.8 6.8-2.3zm20-36.8c1.8 0 3.5 0.5 4.7 1.6l1.5-3.3c-1.6-1.3-4-2-6.4-2-6.3 0-9.7 3.8-9.7 9.5v4h-5.7v3.7h5.7v28.4h4.3v-28.4h9.8v-3.7h-9.9v-3.8c0-4 2-6 5.7-6zm22.6 42.2c9.4 0 16.3-6.8 16.3-16.4 0-9.5-6.9-16.3-16.3-16.3-9.4 0-16.3 6.8-16.3 16.3 0 9.6 6.9 16.4 16.3 16.4zm0-3.9c-6.8 0-11.9-5-11.9-12.5 0-7.5 5.1-12.5 11.9-12.5 6.9 0 11.9 5 11.9 12.5 0 7.5-5 12.5-11.9 12.5zm25.2 3.6h4.3v-45.3h-4.3zm18.6-39.1c1.8 0 3.1-1.4 3.1-3.2 0-1.6-1.4-2.9-3.1-2.9-1.8 0-3.2 1.4-3.2 3 0 1.7 1.4 3.1 3.2 3.1zm-2.2 39.1h4.3v-32.1h-4.3zm29.5 0.3c9.4 0 16.3-6.8 16.3-16.3 0-9.5-6.9-16.3-16.3-16.3-9.4 0-16.4 6.8-16.4 16.3 0 9.5 7 16.3 16.4 16.3zm0-3.8c-6.8 0-12-5-12-12.5 0-7.5 5.2-12.5 12-12.5 6.8 0 11.9 5 11.9 12.5 0 7.5-5.1 12.5-11.9 12.5z"/>
</svg>