<svg version="1.2" xmlns="http://www.w3.org/2000/svg" viewBox="0 0 800 571" width="800" height="571">
	<title>hero-image</title>
	<style>
		.s0 { fill: #bdbdbd10 } 
		.s1 { fill: #cccccc } 
		.s2 { fill: #b6b3c5 } 
		.s3 { fill: #d6d6e3 } 
		.s4 { fill: #090814 } 
		.s5 { fill:rgb(69, 69, 69) } 
		.s6 { fill: #f2f2f2 } 
		.s7 { fill: #80ed99 } 
		.s8 { fill: #3f3d56 } 
		.s9 { fill: #e6e6e6 } 
		.s10 { fill: #ffb9b9 } 
		.s11 { fill: #ffb6b6 } 
		.s12 { fill: #ffb7b7 } 
	</style>
	<g>
		<path class="s0" d="m662.4 41.6c70.2 46.2 119 137.8 132.7 242.8 13.9 105.2-7.4 224-77.8 266-70.5 42-189.9 7.2-291.4-10.6-101.6-17.8-185.2-18.7-268.3-60.7-82.9-42-165.5-125.1-156.2-199.2 9.1-74.1 109.9-139 192.9-185.2 83.1-46.2 148.3-73.7 227-87 78.6-13.1 170.6-12.3 241.1 33.9z"/>
	</g>
	<g>
		<path class="s1" d="m242.2 531.6c0 0.6 0.4 1.1 0.7 1.1h353.2c0.4 0 0.7-0.5 0.7-1.1 0-0.5-0.3-1-0.7-1h-353.2c-0.3 0-0.7 0.5-0.7 1z"/>
		<path fill-rule="evenodd" class="s2" d="m370 528.2v2.2h-12.6v-2.2z"/>
		<path fill-rule="evenodd" class="s2" d="m481.6 528.6v2.2h-12.6v-2.2z"/>
		<path class="s3" d="m437.6 429.1c-0.7 4.3-2.9 8.1-6.2 10.9-3.2 2.8-7.4 4.3-11.7 4.3-4.3 0-8.5-1.5-11.8-4.3-3.3-2.8-5.4-6.6-6.1-10.9h-45.9v99.5h127.6v-99.5z"/>
		<path fill-rule="evenodd" class="s4" d="m483.8 520.7v3.5h-127.5v-3.5z"/>
		<path class="s4" d="m676.2 431.7h-513.1q-1.4 0-2.7-0.5-1.3-0.6-2.3-1.6-1-1-1.6-2.3-0.5-1.3-0.5-2.7v-293.1q0-1.4 0.5-2.7 0.6-1.3 1.6-2.3 1-1 2.3-1.6 1.3-0.5 2.7-0.5h513.1q1.5 0 2.8 0.5 1.3 0.6 2.3 1.6 1 1 1.5 2.3 0.6 1.3 0.6 2.7v293.1q0 1.4-0.6 2.7-0.5 1.3-1.5 2.3-1 1-2.3 1.6-1.3 0.5-2.8 0.5z"/>
		<path fill-rule="evenodd" class="s5" d="m670.8 136.3v283.5h-502.2v-283.5z"/>
		<path fill-rule="evenodd" class="s6" d="m232.8 196.9h256.8c3 0 5.3 2.3 5.3 5.2v151.9c0 2.9-2.3 5.3-5.3 5.3h-256.8c-2.9 0-5.2-2.4-5.2-5.3v-151.9c0-2.9 2.3-5.2 5.2-5.2z"/>
		<path fill-rule="evenodd" class="s5" d="m489.3 201.7v152.3h-256.7v-152.3z"/>
		<path fill-rule="evenodd" class="s6" d="m518.6 196.9h87.9c2.9 0 5.3 2.3 5.3 5.2v64.7c0 3-2.4 5.3-5.3 5.3h-87.9c-2.9 0-5.3-2.3-5.3-5.3v-64.7c0-2.9 2.4-5.2 5.3-5.2z"/>
		<path fill-rule="evenodd" class="s5" d="m606.9 200.6v67.8h-88.7v-67.8z"/>
		<path fill-rule="evenodd" class="s6" d="m518.6 284h87.9c2.9 0 5.3 2.3 5.3 5.3v64.7c0 2.9-2.4 5.3-5.3 5.3h-87.9c-2.9 0-5.3-2.4-5.3-5.3v-64.7c0-3 2.4-5.3 5.3-5.3z"/>
		<path fill-rule="evenodd" class="s5" d="m606.9 287.7v67.8h-88.7v-67.8z"/>
		<g>
			<path class="s7" d="m581.4 228.5q-0.6-1.5-1.4-2.8-0.7-1.3-1.7-2.4-1-1.2-2.2-2.2-1.1-1-2.4-1.8-1.5-0.9-3-1.6-1.5-0.7-3-1.3-1.6-0.6-3.2-1.1-1.6-0.4-3.3-0.7-1.6-0.3-3.3-0.3-1.6-0.1-3.3 0-1.6 0.1-3.2 0.3-1.7 0.3-3.3 0.7c-2 0.5-4.3 1.2-6 2.4-1.7 1.2-2.8 3.3-3.7 5.1-0.9 1.7-1.5 3.6-1 5.5q0.2 0.7 0.5 1.3 0.3 0.6 0.7 1.2 0.4 0.5 0.9 1 0.4 0.5 1 0.9c1.3 1 3 2.3 4.7 1.7q0 0 0.1 0 0-0.1 0-0.1 0.1 0 0.1 0 0 0 0.1 0c2.9 0.8 5.8-0.4 8.8-1.5 1.8-0.6 3.6-0.9 5.5-0.1q0.6 0.3 1.2 0.7 0.6 0.4 1.2 0.9 0.5 0.5 1 1 0.5 0.6 0.9 1.2c1 1.5 1.7 3.3 2.8 4.7q0.4 0.6 0.9 1.1 0.6 0.4 1.2 0.8 0.6 0.3 1.3 0.5 0.6 0.2 1.3 0.3c3.6 0.4 8.4 0 10.5-3.4 2.2-3.6 0.8-8.4-0.7-12zm-36.9-5.6l1.6 0.1q-0.4 0.1-0.8 0.2-0.3 0.1-0.7 0.3-0.3 0.2-0.7 0.4-0.3 0.2-0.6 0.4-0.1 0.1-0.2 0.2-0.1 0.1-0.2 0.2-0.1 0.1-0.2 0.3-0.1 0.1-0.2 0.2 0-0.1 0-0.1 0.1-0.4 0.3-0.7 0.2-0.3 0.4-0.6 0.3-0.3 0.6-0.5 0.3-0.3 0.7-0.4zm18 3.4q0 0 0.1 0 0 0.1 0.1 0.1 0 0 0.1 0 0 0 0.1 0.1 0.2 0.1 0.3 0.1 0 0.1 0 0.1l-0.7-0.1q0 0 0-0.1 0 0 0-0.1 0 0 0 0 0-0.1 0-0.1zm6.5 7.7q-0.1 0-0.1 0 0 0 0 0.1 0 0-0.1 0 0 0 0 0l-0.1-0.1q0.1 0 0.1 0 0 0 0 0 0.1 0 0.1 0 0 0 0.1 0zm4.1 4.5l0.8 0.1q0 0-0.1 0.1 0 0 0 0 0 0 0 0.1 0 0 0 0-0.3 0.1-0.6 0.1zm3.6-2.1l0.3-0.1q0 0 0.1 0 0 0 0.1 0 0 0 0.1-0.1 0 0 0.1 0 0 0 0 0 0 0.1 0 0.2 0 0.1-0.1 0.2c0 0-0.6-0.2-0.6-0.2zm-12.5-12.9q-0.1-0.1-0.1-0.1-0.1 0-0.1-0.1-0.1 0-0.1 0-0.1-0.1-0.1-0.1-0.3-0.1-0.5-0.2-0.3-0.1-0.6-0.1-0.2-0.1-0.5-0.2-0.3-0.1-0.5-0.1-0.2-0.2-0.3-0.3 0.2 0 0.4 0.1 0.2 0 0.5 0.1 0.2 0 0.4 0.1 0.2 0 0.4 0.1 0.3 0.1 0.6 0.2 0.3 0.1 0.6 0.2 0.2 0.1 0.5 0.2 0.3 0.1 0.6 0.3-0.6-0.1-1.2-0.1zm6.7 0.4q-0.5-0.3-1.1-0.6 0.6 0.3 1.1 0.6zm7.3 3.3q-0.4-0.4-0.7-0.8-0.4-0.4-0.8-0.8-0.4-0.4-0.8-0.8-0.4-0.4-0.8-0.8 0 0 0-0.1 0.1-0.1 0.1-0.2 0-0.1 0-0.1 0-0.1 0-0.2 0.4 0.4 0.9 0.9 0.4 0.4 0.7 0.9 0.4 0.5 0.7 1 0.4 0.5 0.7 1zm-13.6-9.4l-0.4-0.1c-1.4-0.3-2.9-0.7-4.3-1q0.1 0 0.2 0.1 0.6 0 1.2 0.1 0.5 0.1 1.1 0.3 0.6 0.1 1.1 0.3 0.6 0.1 1.1 0.3z"/>
			<path class="s8" d="m565.9 258.3c-1.4 0-3.1-0.1-4.4-1q-0.3-0.3-0.5-0.5-0.2-0.3-0.4-0.6-0.2-0.4-0.3-0.7 0-0.4-0.1-0.7 0-0.3 0.1-0.5 0-0.3 0.1-0.5 0.1-0.3 0.2-0.5 0.2-0.2 0.4-0.3 0.3-0.3 0.6-0.4 0.3-0.1 0.7-0.2 0.4 0 0.7 0 0.4 0 0.7 0.2l-1.1-8.1 0.8-0.1 1.3 9.5-0.7-0.3c-0.7-0.4-1.8-0.6-2.5 0q-0.1 0.1-0.2 0.2-0.1 0.2-0.2 0.3 0 0.2 0 0.3-0.1 0.2-0.1 0.4 0.1 0.2 0.1 0.5 0.1 0.2 0.2 0.5 0.2 0.2 0.3 0.4 0.2 0.2 0.4 0.4c1 0.7 2.4 0.8 3.9 0.9z"/>
			<path fill-rule="evenodd" class="s8" d="m558.6 245.2v0.8h-4.4v-0.8z"/>
			<path fill-rule="evenodd" class="s8" d="m572.5 245.2v0.8h-4.4v-0.8z"/>
			<path class="s8" d="m546.6 234c-3.5-0.4-6.3-3.8-6.6-7.3-0.3-4.1 2.1-7.9 5.3-10.2 3.4-2.4 7.7-3.4 11.8-3.7q3-0.1 6 0.3 2.9 0.4 5.8 1.3 2.8 1 5.4 2.4 2.6 1.4 4.9 3.3c3.1 2.6 6 5.9 7.1 9.8 0.9 3.4 0.2 7.3-2.6 9.7q-0.5 0.5-1.1 0.8-0.6 0.3-1.2 0.5-0.7 0.2-1.3 0.3-0.7 0-1.4 0c-2.1-0.3-4.1-1.4-5.8-2.6-3.3-2.4-6-5.8-10.1-7.1-2.9-0.9-6.8-0.1-8.6 2.6q-0.1 0.2-0.3 0.5-0.1 0.2-0.2 0.5-0.1 0.2-0.2 0.5 0 0.3-0.1 0.5 0 0.2 0 0.3 0 0.1 0.1 0.2 0.1 0.1 0.2 0.2 0 0.1 0.2 0.1 0.1 0 0.2 0 0.1 0 0.2-0.1 0.1 0 0.2-0.1 0.1-0.1 0.1-0.2c0.5-3.4 4.6-4.7 7.6-3.9 4.2 1.1 7.1 4.9 10.5 7.3q0.7 0.5 1.4 0.9 0.8 0.5 1.6 0.8 0.7 0.3 1.6 0.5 0.8 0.2 1.6 0.3 0.7 0.1 1.4 0 0.8-0.1 1.4-0.3 0.7-0.2 1.4-0.6 0.6-0.3 1.2-0.8c3-2.3 4.1-6.4 3.4-10-0.7-4.2-3.6-7.8-6.7-10.6q-2.3-2.1-5-3.7-2.7-1.6-5.7-2.7-2.9-1.1-6-1.6-3.1-0.6-6.2-0.5c-4.3 0.1-8.8 1-12.5 3.3-3.6 2.2-6.4 5.9-6.8 10.2q-0.1 1.4 0.2 2.8 0.3 1.4 1 2.6 0.7 1.3 1.7 2.3 1 1 2.3 1.6 0.3 0.2 0.6 0.3 0.4 0.1 0.7 0.2 0.3 0.1 0.6 0.2 0.4 0 0.7 0.1c0.8 0.1 0.8-1.2 0-1.2z"/>
		</g>
		<g>
			<path fill-rule="evenodd" class="s9" d="m266.1 226.1h6.8c1.1 0 1.9 0.8 1.9 1.9l0.1 1.7c0 1.1-0.9 1.9-1.9 1.9l-6.9 0.1c-1 0-1.9-0.9-1.9-1.9v-1.8c0-1 0.8-1.9 1.9-1.9z"/>
			<path fill-rule="evenodd" class="s7" d="m324.2 225.9h6.8c1.1 0 1.9 0.8 1.9 1.9v1.7c0 1.1-0.8 1.9-1.9 2h-6.8c-1.1 0-1.9-0.9-1.9-1.9v-1.8c0-1 0.8-1.9 1.9-1.9z"/>
			<path fill-rule="evenodd" class="s9" d="m340.6 225.8h6.9c1 0 1.9 0.9 1.9 1.9v1.8c0 1-0.9 1.9-1.9 1.9h-6.9c-1 0-1.9-0.8-1.9-1.9v-1.8c0-1 0.9-1.9 1.9-1.9z"/>
			<path fill-rule="evenodd" class="s9" d="m281.9 225.6l33.3-0.1c1.1 0 1.9 0.8 1.9 1.9v1.7c0 1.1-0.8 1.9-1.9 1.9l-33.3 0.2c-1 0-1.9-0.9-1.9-1.9v-1.8c0-1.1 0.8-1.9 1.9-1.9z"/>
			<path fill-rule="evenodd" class="s6" d="m359.3 225.3l33.4-0.1c1 0 1.9 0.8 1.9 1.9v1.8c0 1-0.9 1.9-1.9 1.9l-33.4 0.1c-1 0-1.9-0.9-1.9-1.9v-1.8c0-1 0.9-1.9 1.9-1.9z"/>
			<path fill-rule="evenodd" class="s9" d="m266.3 238.7h6.9c1 0 1.9 0.8 1.9 1.9v1.7c0 1.1-0.8 1.9-1.9 1.9l-6.8 0.1c-1.1 0-1.9-0.9-1.9-1.9l-0.1-1.8c0-1.1 0.9-1.9 1.9-1.9z"/>
			<path fill-rule="evenodd" class="s7" d="m324.4 238.5h6.9c1 0 1.9 0.8 1.9 1.9v1.7c0 1.1-0.9 1.9-1.9 1.9l-6.9 0.1c-1 0-1.9-0.9-1.9-1.9v-1.8c0-1.1 0.9-1.9 1.9-1.9z"/>
			<path fill-rule="evenodd" class="s9" d="m340.9 238.4h6.8c1.1 0 1.9 0.9 1.9 1.9v1.8c0 1-0.8 1.9-1.9 1.9h-6.8c-1.1 0-1.9-0.8-1.9-1.9v-1.8c0-1 0.8-1.9 1.9-1.9z"/>
			<path fill-rule="evenodd" class="s9" d="m282.1 238.2l33.4-0.1c1-0.1 1.9 0.8 1.9 1.8v1.8c0 1.1-0.9 1.9-1.9 1.9l-33.3 0.1c-1.1 0.1-1.9-0.8-2-1.8v-1.8c0-1.1 0.9-1.9 1.9-1.9z"/>
			<path fill-rule="evenodd" class="s6" d="m359.6 237.9l33.3-0.1c1.1 0 1.9 0.8 1.9 1.9v1.8c0 1-0.8 1.9-1.9 1.9l-33.3 0.1c-1.1 0-1.9-0.9-1.9-1.9v-1.8c0-1 0.8-1.9 1.9-1.9z"/>
			<path fill-rule="evenodd" class="s9" d="m297.1 251.2h6.9c1.1-0.1 1.9 0.8 1.9 1.8v1.8c0 1.1-0.8 1.9-1.9 1.9l-6.8 0.1c-1.1 0-1.9-0.9-1.9-1.9v-1.8c0-1.1 0.8-1.9 1.8-1.9z"/>
			<path fill-rule="evenodd" class="s7" d="m355.2 251h6.9c1-0.1 1.9 0.8 1.9 1.8v1.8c0 1.1-0.8 1.9-1.9 1.9l-6.8 0.1c-1.1 0-2-0.9-2-1.9v-1.8c0-1.1 0.9-1.9 1.9-1.9z"/>
			<path fill-rule="evenodd" class="s9" d="m371.7 250.9h6.8c1.1 0 1.9 0.8 1.9 1.9l0.1 1.8c0 1-0.9 1.9-1.9 1.9h-6.9c-1 0-1.9-0.8-1.9-1.9v-1.8c0-1 0.8-1.9 1.9-1.9z"/>
			<path fill-rule="evenodd" class="s9" d="m312.9 250.7l33.4-0.2c1 0 1.9 0.9 1.9 1.9v1.8c0 1.1-0.8 1.9-1.9 1.9l-33.3 0.1c-1.1 0-1.9-0.8-1.9-1.9v-1.7c-0.1-1.1 0.8-1.9 1.8-1.9z"/>
			<path fill-rule="evenodd" class="s7" d="m266.3 288.2h6.9c1 0 1.9 0.8 1.9 1.9v1.7c0 1.1-0.9 1.9-1.9 2h-6.9c-1 0-1.9-0.9-1.9-1.9v-1.8c0-1 0.9-1.9 1.9-1.9z"/>
			<path fill-rule="evenodd" class="s9" d="m282.8 288.1h6.8c1.1 0 1.9 0.9 1.9 1.9v1.8c0 1-0.8 1.9-1.9 1.9h-6.8c-1.1 0-1.9-0.8-1.9-1.9v-1.8c0-1 0.8-1.9 1.9-1.9z"/>
			<path fill-rule="evenodd" class="s6" d="m301.5 288.5l33.3-0.1c1.1 0 1.9 0.9 1.9 1.9v1.8c0 1-0.8 1.9-1.9 1.9l-33.3 0.1c-1.1 0-1.9-0.8-1.9-1.9v-1.8c0-1 0.8-1.9 1.9-1.9z"/>
			<path fill-rule="evenodd" class="s7" d="m308.7 275.5l6.8-0.1c1.1 0 1.9 0.9 1.9 1.9v1.8c0 1.1-0.8 1.9-1.9 1.9h-6.8c-1.1 0-1.9-0.8-1.9-1.9v-1.7c0-1.1 0.8-1.9 1.9-1.9z"/>
			<path fill-rule="evenodd" class="s7" d="m325.1 275.4h6.9c1 0 1.9 0.8 1.9 1.9v1.7c0 1.1-0.9 1.9-1.9 2h-6.9c-1 0-1.9-0.9-1.9-1.9v-1.8c0-1 0.9-1.9 1.9-1.9z"/>
			<path fill-rule="evenodd" class="s9" d="m266.4 276.1l33.3-0.2c1.1 0 1.9 0.9 1.9 1.9v1.8c0 1.1-0.8 1.9-1.9 1.9l-33.3 0.1c-1.1 0-1.9-0.8-1.9-1.9v-1.7c0-1.1 0.8-1.9 1.9-1.9z"/>
			<path fill-rule="evenodd" class="s6" d="m343.8 275.8l33.4-0.1c1 0 1.9 0.8 1.9 1.9v1.8c0 1-0.9 1.9-1.9 1.9l-33.4 0.1c-1 0-1.9-0.9-1.9-1.9v-1.8c0-1 0.9-1.9 1.9-1.9z"/>
			<path fill-rule="evenodd" class="s9" d="m297.2 262.9h6.8c1.1 0 1.9 0.8 1.9 1.9l0.1 1.7c0 1.1-0.9 2-1.9 2h-6.9c-1 0-1.9-0.9-1.9-1.9v-1.8c0-1 0.8-1.9 1.9-1.9z"/>
			<path fill-rule="evenodd" class="s7" d="m355.3 262.7h6.8c1.1 0 1.9 0.8 1.9 1.9v1.7c0 1.1-0.8 2-1.9 2h-6.8c-1.1 0-1.9-0.9-1.9-1.9v-1.8c0-1 0.8-1.9 1.9-1.9z"/>
			<path fill-rule="evenodd" class="s9" d="m371.7 262.6h6.9c1 0 1.9 0.9 1.9 1.9v1.8c0 1-0.9 1.9-1.9 1.9h-6.9c-1 0-1.9-0.8-1.9-1.9v-1.8c0-1 0.9-1.9 1.9-1.9z"/>
			<path fill-rule="evenodd" class="s9" d="m313 263.3l33.3-0.1c1.1 0 1.9 0.8 1.9 1.9v1.8c0 1-0.8 1.9-1.9 1.9l-33.3 0.1c-1 0-1.9-0.9-1.9-1.9v-1.8c0-1 0.8-1.9 1.9-1.9z"/>
			<path fill-rule="evenodd" class="s7" d="m285.3 268.2c-1.5-0.4-2.3-2-1.9-3.4 0.4-1.5 1.9-2.3 3.4-1.9 1.4 0.4 2.3 1.9 1.9 3.4-0.4 1.4-2 2.3-3.4 1.9z"/>
			<path fill-rule="evenodd" class="s7" d="m285.2 256.6c-1.5-0.5-2.3-2-1.9-3.4 0.4-1.5 1.9-2.4 3.4-1.9 1.5 0.4 2.3 1.9 1.9 3.4-0.4 1.4-1.9 2.3-3.4 1.9z"/>
		</g>
		<g>
			<path class="s6" d="m567.3 328.8l-26.1 6.8q-0.7 0.1-1.4 0-0.6-0.1-1.2-0.4-0.6-0.4-1-0.9-0.5-0.6-0.6-1.2l-7.9-30.7q-0.2-0.7-0.1-1.4 0.1-0.6 0.4-1.2 0.4-0.6 0.9-1 0.6-0.4 1.3-0.6l24.3-6.3 6.2 2.8 7.7 29.9q0.1 0.7 0 1.4 0 0.7-0.4 1.2-0.3 0.6-0.9 1.1-0.5 0.4-1.2 0.5z"/>
			<path class="s5" d="m531.8 299.1q-0.5 0.2-0.9 0.5-0.3 0.3-0.6 0.7-0.2 0.4-0.3 0.9-0.1 0.5 0 0.9l7.9 30.7q0.2 0.5 0.5 0.9 0.3 0.4 0.7 0.6 0.4 0.3 0.9 0.4 0.5 0 0.9-0.1l26.1-6.7q0.5-0.1 0.9-0.4 0.4-0.3 0.7-0.8 0.2-0.4 0.3-0.9 0-0.4-0.1-0.9l-7.6-29.5-5.4-2.4z"/>
			<path class="s6" d="m562 294.9l-4 1q-0.3 0.1-0.5 0-0.2 0-0.4-0.1-0.2-0.1-0.3-0.3-0.2-0.2-0.2-0.4l-0.8-3q0 0 0 0 0-0.1 0-0.1 0 0 0.1 0 0 0 0 0l6.1 2.7q0 0 0 0.1 0.1 0 0.1 0 0 0-0.1 0 0 0.1 0 0.1z"/>
			<path class="s1" d="m559.9 321.1l-11.9 3q-0.2 0.1-0.4 0-0.2-0.1-0.3-0.4-0.1-0.2 0.1-0.4 0.1-0.2 0.3-0.3l11.9-3q0.2-0.1 0.4 0 0.2 0.2 0.3 0.4 0 0.2-0.1 0.4-0.1 0.2-0.3 0.3z"/>
			<path class="s1" d="m562.7 322.4l-14.2 3.6q-0.3 0.1-0.5 0-0.2-0.2-0.2-0.4-0.1-0.2 0-0.4 0.2-0.2 0.4-0.3l14.2-3.6q0.2-0.1 0.4 0 0.2 0.1 0.3 0.4 0 0.2-0.1 0.4-0.1 0.2-0.3 0.3z"/>
			<path fill-rule="evenodd" class="s9" d="m543.1 327.8c-1.1 0-2-0.9-2-2 0-1.1 0.9-2 2-2 1.2 0 2.1 0.9 2.1 2 0 1.1-0.9 2-2.1 2z"/>
			<path class="s5" d="m558.6 315.8l-15.8 4q-0.3 0.1-0.7 0.1-0.3-0.1-0.6-0.3-0.3-0.1-0.5-0.4-0.2-0.3-0.3-0.6l-3.3-12.9q-0.1-0.4-0.1-0.7 0.1-0.4 0.2-0.7 0.2-0.3 0.5-0.5 0.3-0.2 0.6-0.3l15.8-4q0.4-0.1 0.7-0.1 0.4 0.1 0.7 0.2 0.3 0.2 0.5 0.5 0.2 0.3 0.3 0.6l3.3 12.9q0.1 0.3 0 0.7 0 0.3-0.2 0.6-0.2 0.3-0.5 0.6-0.2 0.2-0.6 0.3z"/>
			<path class="s9" d="m558.6 315.8l-15.8 4q-0.3 0.1-0.7 0.1-0.3-0.1-0.6-0.3-0.3-0.1-0.5-0.4-0.2-0.3-0.3-0.6l-3.3-12.9q-0.1-0.4-0.1-0.7 0.1-0.4 0.2-0.7 0.2-0.3 0.5-0.5 0.3-0.2 0.6-0.3l15.8-4q0.4-0.1 0.7-0.1 0.4 0.1 0.7 0.2 0.3 0.2 0.5 0.5 0.2 0.3 0.3 0.6l3.3 12.9q0.1 0.3 0 0.7 0 0.3-0.2 0.6-0.2 0.3-0.5 0.6-0.2 0.2-0.6 0.3zm-19.9-12.1q-0.3 0.1-0.6 0.3-0.2 0.2-0.4 0.4-0.1 0.3-0.2 0.6 0 0.3 0.1 0.6l3.3 12.9q0 0.3 0.2 0.6 0.2 0.2 0.5 0.4 0.3 0.1 0.6 0.2 0.3 0 0.6-0.1l15.8-4q0.3-0.1 0.5-0.3 0.3-0.2 0.4-0.5 0.2-0.2 0.2-0.5 0.1-0.3 0-0.7l-3.3-12.8q-0.1-0.3-0.3-0.6-0.2-0.2-0.4-0.4-0.3-0.1-0.6-0.2-0.3 0-0.6 0.1z"/>
			<path class="s6" d="m553.6 303.8l-7.9 2q-0.1 0-0.2 0 0 0-0.1 0 0 0 0-0.1-0.1 0-0.1 0 0-0.1 0-0.2 0 0 0-0.1 0.1 0 0.1 0 0-0.1 0.1-0.1l8.1-2.1c0.3 0.2 0.3 0.5 0 0.6z"/>
			<path class="s6" d="m554 305.2l-8 2q0 0-0.1 0 0 0-0.1 0 0 0-0.1-0.1 0 0 0 0-0.1-0.1 0-0.2 0 0 0-0.1 0 0 0.1 0 0-0.1 0.1-0.1l8.1-2.1c0.3 0.2 0.2 0.5 0 0.6z"/>
			<path class="s9" d="m544.5 308.5l-2.4 0.6q-0.1 0-0.2 0 0 0-0.1 0 0-0.1-0.1-0.1 0-0.1 0-0.1l-0.8-2.9q0-0.1 0-0.1 0-0.1 0.1-0.1 0-0.1 0.1-0.1 0-0.1 0.1-0.1l2.4-0.6q0.1 0 0.1 0 0.1 0 0.1 0 0.1 0.1 0.1 0.1 0.1 0.1 0.1 0.1l0.7 2.9q0 0.1 0 0.1 0 0.1 0 0.1 0 0.1-0.1 0.1 0 0.1-0.1 0.1z"/>
			<path class="s6" d="m554.7 308l-12.2 3.2q0 0-0.1 0 0 0-0.1 0 0-0.1-0.1-0.1 0 0 0-0.1 0-0.1 0-0.1 0-0.1 0-0.1 0-0.1 0.1-0.1 0 0 0.1 0l12.3-3.2c0.3 0.1 0.2 0.5 0 0.5z"/>
			<path class="s6" d="m555.1 309.4l-12.2 3.2q-0.1 0-0.1 0-0.1 0-0.1 0-0.1-0.1-0.1-0.1 0 0-0.1-0.1 0-0.1 0-0.1 0-0.1 0.1-0.1 0-0.1 0-0.1 0.1 0 0.1 0l12.3-3.2c0.4 0.1 0.3 0.5 0.1 0.5z"/>
			<path class="s6" d="m555.4 310.8l-12.1 3.2q-0.1 0-0.2 0 0 0-0.1 0 0-0.1 0-0.1-0.1 0-0.1-0.1 0-0.1 0-0.1 0-0.1 0-0.1 0.1-0.1 0.1-0.1 0 0 0.1 0l12.3-3.2c0.3 0.1 0.2 0.5 0 0.5z"/>
			<path class="s6" d="m555.8 312.2l-12.2 3.2q0 0-0.1 0 0 0-0.1 0 0-0.1-0.1-0.1 0 0 0-0.1-0.1-0.1 0-0.1 0-0.1 0-0.1 0-0.1 0.1-0.1 0 0 0.1 0l12.3-3.2c0.3 0.1 0.2 0.5 0 0.5z"/>
			<path class="s6" d="m556.1 313.6l-12.1 3.2q-0.1 0-0.1 0-0.1 0-0.1 0-0.1-0.1-0.1-0.1-0.1-0.1-0.1-0.1 0-0.1 0-0.1 0-0.1 0-0.1 0.1-0.1 0.1-0.1 0.1 0 0.1-0.1l12.3-3.1c0.4 0.1 0.3 0.5 0 0.5z"/>
			<path class="s5" d="m543.3 326.5q0 0 0 0-0.1 0-0.1 0 0 0 0 0 0 0 0 0l-0.6-0.2q-0.1-0.1-0.1-0.1 0-0.1 0-0.2 0-0.1 0.1-0.1 0.1-0.1 0.2 0l0.3 0.1 0.5-1.1q0 0 0 0 0.1-0.1 0.1-0.1 0.1 0 0.1 0 0 0 0.1 0 0 0 0 0.1 0.1 0 0.1 0 0 0.1 0 0.1 0 0.1 0 0.1l-0.6 1.3q0 0 0 0 0 0.1 0 0.1 0 0-0.1 0 0 0 0 0z"/>
			<path class="s9" d="m577.3 340.5h-27q-0.6 0-1.3-0.2-0.6-0.3-1.1-0.8-0.5-0.5-0.7-1.1-0.3-0.6-0.3-1.3v-31.7q0-0.7 0.3-1.3 0.2-0.7 0.7-1.2 0.5-0.4 1.1-0.7 0.7-0.3 1.3-0.3h25.1l5.4 4.3v30.9q0 0.7-0.3 1.3-0.3 0.6-0.8 1.1-0.4 0.5-1.1 0.8-0.6 0.2-1.3 0.2z"/>
			<path class="s5" d="m550.3 302.9q-0.4 0-0.9 0.2-0.4 0.2-0.8 0.5-0.3 0.4-0.5 0.8-0.2 0.5-0.2 1v31.7q0 0.5 0.2 0.9 0.2 0.5 0.5 0.8 0.4 0.4 0.8 0.6 0.5 0.1 0.9 0.1h27q0.5 0 1-0.1 0.4-0.2 0.7-0.6 0.4-0.3 0.6-0.8 0.2-0.4 0.2-0.9v-30.4l-4.7-3.8z"/>
			<path class="s7" d="m572.1 312.1h-12.3q-0.3 0-0.4-0.1-0.2-0.2-0.2-0.4 0-0.3 0.2-0.4 0.1-0.2 0.4-0.2h12.3q0.2 0 0.4 0.2 0.1 0.1 0.1 0.4 0 0.2-0.1 0.4-0.2 0.1-0.4 0.1z"/>
			<path class="s7" d="m574.4 314.1h-14.6q-0.3 0-0.4-0.2-0.2-0.2-0.2-0.4 0-0.2 0.2-0.4 0.1-0.2 0.4-0.2h14.6q0.3 0 0.4 0.2 0.2 0.2 0.2 0.4 0 0.2-0.2 0.4-0.1 0.2-0.4 0.2z"/>
			<path class="s1" d="m572.1 319.7h-12.3q-0.2 0-0.4 0.2-0.2 0.1-0.2 0.4 0 0.2 0.2 0.4 0.2 0.1 0.4 0.1h12.3q0.2 0 0.4-0.1 0.1-0.2 0.1-0.4 0-0.3-0.1-0.4-0.2-0.2-0.4-0.2z"/>
			<path class="s1" d="m574.4 321.6h-14.6q-0.2 0-0.4 0.2-0.2 0.2-0.2 0.4 0 0.2 0.2 0.4 0.2 0.2 0.4 0.2h14.6q0.3 0 0.4-0.2 0.2-0.2 0.2-0.4 0-0.2-0.2-0.4-0.1-0.2-0.4-0.2z"/>
			<path class="s1" d="m572.1 329.5h-12.3q-0.3 0-0.4-0.1-0.2-0.2-0.2-0.4 0-0.3 0.2-0.5 0.1-0.1 0.4-0.1h12.3q0.2 0 0.4 0.1 0.1 0.2 0.1 0.5 0 0.2-0.1 0.4-0.2 0.1-0.4 0.1z"/>
			<path class="s1" d="m574.4 331.5h-14.6q-0.3 0-0.4-0.2-0.2-0.2-0.2-0.4 0-0.2 0.2-0.4 0.1-0.2 0.4-0.2h14.6q0.3 0 0.4 0.2 0.2 0.2 0.2 0.4 0 0.2-0.2 0.4-0.1 0.2-0.4 0.2z"/>
			<path fill-rule="evenodd" class="s7" d="m554.7 314.6c-1.1 0-2.1-0.9-2.1-2.1 0-1.1 1-2 2.1-2 1.1 0 2 0.9 2 2 0 1.2-0.9 2.1-2 2.1z"/>
			<path class="s5" d="m554.5 313.3q0 0-0.1 0 0 0 0 0 0 0 0 0 0 0-0.1 0l-0.4-0.4q-0.1 0-0.1-0.1 0-0.1 0-0.2 0.1-0.1 0.2-0.1 0.1 0 0.1 0.1l0.3 0.2 0.8-0.9q0-0.1 0-0.1 0.1 0 0.1 0 0 0 0.1 0 0 0 0.1 0 0 0 0 0.1 0 0 0 0.1 0.1 0 0 0 0 0.1 0 0.1l-0.9 1.1q0 0.1 0 0.1 0 0 0 0-0.1 0-0.1 0 0 0 0 0z"/>
			<path class="s7" d="m556.9 321.2q0 0.4-0.1 0.8-0.2 0.4-0.5 0.7-0.3 0.3-0.6 0.4-0.4 0.2-0.8 0.2 0 0 0 0 0 0 0 0 0 0-0.1 0 0 0 0 0c-0.8-0.1-1.5-0.6-1.8-1.3-0.3-0.8-0.1-1.7 0.5-2.2 0.6-0.6 1.4-0.8 2.2-0.4 0.7 0.3 1.2 1 1.2 1.8z"/>
			<path fill-rule="evenodd" class="s1" d="m554.7 332c-1.1 0-2.1-0.9-2.1-2.1 0-1.1 1-2 2.1-2 1.1 0 2 0.9 2 2 0 1.2-0.9 2.1-2 2.1z"/>
			<path class="s1" d="m580.7 306.3h-4.2q-0.2 0-0.5-0.1-0.2-0.1-0.3-0.2-0.2-0.2-0.3-0.4-0.1-0.2-0.1-0.4v-3.1q0 0 0-0.1 0.1 0 0.1 0 0 0 0 0 0 0 0 0l5.3 4.2q0 0 0 0 0 0 0 0.1 0 0 0 0 0 0 0 0z"/>
			<path class="s7" d="m559.2 320.3q0-0.2 0.1-0.3 0-0.1 0.1-0.1 0.1-0.1 0.2-0.2 0.1 0 0.2 0h3q0.1 0.1 0.2 0.3 0 0.1 0.1 0.2 0 0.2 0.1 0.3 0 0.2 0 0.3h-3.4q-0.1 0-0.2 0-0.1 0-0.2-0.1-0.1-0.1-0.1-0.2-0.1-0.1-0.1-0.2z"/>
			<path class="s7" d="m563.3 321.6q0 0.2 0 0.3 0 0.2 0 0.3-0.1 0.2-0.1 0.3 0 0.1-0.1 0.3h-3.3q-0.2 0-0.4-0.2-0.2-0.2-0.2-0.4 0-0.2 0.2-0.4 0.2-0.2 0.4-0.2z"/>
			<path class="s8" d="m596 350.8q-0.1 0.1-0.3 0.3-0.2 0.1-0.4 0.2-0.2 0-0.5 0-0.2 0-0.4-0.2l-13.5-8.2c-0.3-0.2-0.5-0.4-0.5-0.7-0.1-0.3-0.1-0.7 0.1-0.9 0.2-0.3 0.4-0.5 0.7-0.5 0.3-0.1 0.6-0.1 0.9 0.1l13.5 8.3q0.2 0.1 0.3 0.3 0.2 0.1 0.2 0.4 0.1 0.2 0.1 0.4-0.1 0.3-0.2 0.5z"/>
			<path class="s8" d="m582.5 342.5c-2 3.2-5.7 4.9-9.4 4.3-3.7-0.5-6.7-3.3-7.6-7-0.8-3.6 0.6-7.4 3.6-9.6 3-2.2 7.1-2.4 10.3-0.5 1 0.7 1.9 1.5 2.7 2.5 0.7 1 1.2 2.1 1.5 3.3 0.3 1.2 0.3 2.4 0.1 3.6-0.2 1.2-0.6 2.4-1.2 3.4zm-13.9-8.5c-1.4 2.4-1.3 5.5 0.3 7.8 1.7 2.2 4.6 3.3 7.3 2.6 2.7-0.6 4.8-2.9 5.2-5.7 0.5-2.7-0.8-5.5-3.2-7q-1.2-0.7-2.6-0.9-1.3-0.2-2.7 0.1-1.3 0.3-2.4 1.1-1.2 0.9-1.9 2z"/>
		</g>
		<g>
			<path class="s5" d="m454.5 328.4q-0.1 0-0.1 0-0.1 0-0.2 0-0.1-0.1-0.2-0.1 0-0.1-0.1-0.1l-9.2-10.1q-0.1-0.1-0.2-0.1 0-0.1-0.2-0.2-0.1 0-0.2 0-0.1-0.1-0.2-0.1h-48.6q-0.6 0-1.1-0.2-0.5-0.2-0.9-0.6-0.4-0.4-0.6-0.9-0.2-0.5-0.2-1v-17.6q0-0.5 0.2-1.1 0.2-0.5 0.6-0.9 0.4-0.3 0.9-0.6 0.5-0.2 1.1-0.2h63q0.5 0 1 0.2 0.5 0.3 0.9 0.6 0.4 0.4 0.6 0.9 0.3 0.6 0.3 1.1v17.6q0 0.5-0.3 1-0.2 0.5-0.6 0.9-0.4 0.4-0.9 0.6-0.5 0.2-1 0.2h-1.8q-0.2 0-0.4 0.1-0.2 0.1-0.4 0.3-0.2 0.1-0.2 0.3-0.1 0.2-0.1 0.5v8.7q0 0.1-0.1 0.2 0 0.2-0.1 0.3 0 0.1-0.1 0.1-0.1 0.1-0.3 0.2 0 0 0 0-0.1 0-0.1 0 0 0-0.1 0 0 0-0.1 0z"/>
			<path class="s3" d="m454.5 328.4q-0.1 0-0.1 0-0.1 0-0.2 0-0.1-0.1-0.2-0.1 0-0.1-0.1-0.1l-9.2-10.1q-0.1-0.1-0.2-0.1 0-0.1-0.2-0.2-0.1 0-0.2 0-0.1-0.1-0.2-0.1h-48.6q-0.6 0-1.1-0.2-0.5-0.2-0.9-0.6-0.4-0.4-0.6-0.9-0.2-0.5-0.2-1v-17.6q0-0.5 0.2-1.1 0.2-0.5 0.6-0.9 0.4-0.3 0.9-0.6 0.5-0.2 1.1-0.2h63q0.5 0 1 0.2 0.5 0.3 0.9 0.6 0.4 0.4 0.6 0.9 0.3 0.6 0.3 1.1v17.6q0 0.5-0.3 1-0.2 0.5-0.6 0.9-0.4 0.4-0.9 0.6-0.5 0.2-1 0.2h-1.8q-0.2 0-0.4 0.1-0.2 0.1-0.4 0.3-0.2 0.1-0.2 0.3-0.1 0.2-0.1 0.5v8.7q0 0.1-0.1 0.2 0 0.2-0.1 0.3 0 0.1-0.1 0.1-0.1 0.1-0.3 0.2 0 0 0 0-0.1 0-0.1 0 0 0-0.1 0 0 0-0.1 0zm-59.2-33.4q-0.5 0-1 0.2-0.4 0.2-0.7 0.5-0.4 0.3-0.6 0.8-0.1 0.4-0.1 0.9v17.6q0 0.4 0.1 0.9 0.2 0.4 0.6 0.8 0.3 0.3 0.7 0.5 0.5 0.2 1 0.2h48.6q0.2 0 0.3 0 0.2 0 0.3 0.1 0.1 0.1 0.3 0.2 0.1 0 0.2 0.2l9.2 10q0.1 0.1 0.2 0.1 0.2 0.1 0.3 0 0.1 0 0.2-0.1 0.1-0.2 0.1-0.3v-8.7q0-0.3 0.1-0.6 0.1-0.3 0.3-0.5 0.2-0.2 0.5-0.3 0.3-0.1 0.6-0.1h1.8q0.4 0 0.9-0.2 0.4-0.2 0.8-0.5 0.3-0.4 0.5-0.8 0.2-0.5 0.2-0.9v-17.6q0-0.5-0.2-0.9-0.2-0.5-0.5-0.8-0.4-0.3-0.8-0.5-0.5-0.2-0.9-0.2z"/>
			<path fill-rule="evenodd" class="s7" d="m399.3 302.4c-1.3 0-2.4-1.1-2.4-2.5 0-1.3 1.1-2.4 2.4-2.4 1.4 0 2.5 1.1 2.5 2.4 0 1.4-1.1 2.5-2.5 2.5z"/>
			<path class="s7" d="m455.4 313.4h-57.3c-0.3 0-0.7-0.1-0.9-0.4-0.2-0.2-0.4-0.5-0.4-0.9 0-0.3 0.2-0.7 0.4-0.9 0.2-0.2 0.6-0.4 0.9-0.4h57.3c0.4 0 0.7 0.2 0.9 0.4 0.3 0.2 0.4 0.6 0.4 0.9 0 0.4-0.1 0.7-0.4 0.9-0.2 0.3-0.5 0.4-0.9 0.4z"/>
			<path class="s7" d="m436.8 307.9h-38.7c-0.3 0-0.7-0.1-0.9-0.4-0.2-0.2-0.4-0.6-0.4-0.9 0-0.4 0.2-0.7 0.4-0.9 0.2-0.3 0.6-0.4 0.9-0.4h38.7c0.3 0 0.6 0.1 0.9 0.4 0.2 0.2 0.4 0.5 0.4 0.9 0 0.3-0.2 0.7-0.4 0.9-0.3 0.3-0.6 0.4-0.9 0.4z"/>
		</g>
		<g>
			<path class="s7" d="m461.1 340.7q-0.8 0-1.5-0.3-0.7-0.3-1.2-0.8-0.5-0.5-0.8-1.2-0.3-0.7-0.3-1.5v-8.2c0-1 0.4-2 1.1-2.7 0.7-0.7 1.7-1.1 2.7-1.1 1 0 1.9 0.4 2.6 1.1 0.7 0.7 1.1 1.7 1.1 2.7v8.2q0 0.8-0.3 1.5-0.2 0.7-0.8 1.2-0.5 0.5-1.2 0.8-0.7 0.3-1.4 0.3z"/>
			<path class="s7" d="m461.1 343.8q-1.6 0-3.1-0.6-1.5-0.6-2.6-1.7-1.1-1.1-1.7-2.6-0.6-1.5-0.6-3.1 0-0.2 0.2-0.4 0.2-0.2 0.4-0.2 0.3 0 0.5 0.2 0.1 0.2 0.2 0.4c0 1.8 0.7 3.5 1.9 4.8 1.3 1.2 3 1.9 4.8 1.9 1.7 0 3.4-0.7 4.7-1.9 1.2-1.3 1.9-3 1.9-4.8q0-0.2 0.2-0.4 0.2-0.2 0.5-0.2 0.3 0 0.5 0.2 0.1 0.2 0.1 0.4 0 1.6-0.6 3.1-0.6 1.5-1.7 2.6-1.1 1.1-2.6 1.7-1.5 0.6-3 0.6z"/>
			<path class="s7" d="m461.1 351.2q-0.2 0-0.3-0.1-0.1 0-0.2-0.1-0.1-0.1-0.1-0.2-0.1-0.1-0.1-0.3v-7.1q0-0.3 0.2-0.4 0.2-0.2 0.5-0.2 0.2 0 0.4 0.2 0.2 0.1 0.2 0.4v7.1q0 0.2 0 0.3-0.1 0.1-0.2 0.2-0.1 0.1-0.2 0.1-0.1 0.1-0.2 0.1z"/>
			<path fill-rule="evenodd" class="s5" d="m459.5 327.9c-0.2 0-0.4-0.2-0.4-0.5 0-0.2 0.2-0.4 0.4-0.4 0.3 0 0.5 0.2 0.5 0.4 0 0.3-0.2 0.5-0.5 0.5z"/>
			<path fill-rule="evenodd" class="s5" d="m459.5 332c-0.2 0-0.4-0.2-0.4-0.5 0-0.2 0.2-0.4 0.4-0.4 0.3 0 0.5 0.2 0.5 0.4 0 0.3-0.2 0.5-0.5 0.5z"/>
			<path fill-rule="evenodd" class="s5" d="m462.6 329.4c-0.3 0-0.5-0.2-0.5-0.5 0-0.2 0.2-0.4 0.5-0.4 0.2 0 0.4 0.2 0.4 0.4 0 0.3-0.2 0.5-0.4 0.5z"/>
			<path class="s7" d="m466.2 351.3h-10.3q-0.3 0-0.4-0.2-0.2-0.2-0.2-0.4 0-0.3 0.2-0.5 0.1-0.2 0.4-0.2h10.3q0.3 0 0.5 0.2 0.1 0.2 0.2 0.5-0.1 0.2-0.2 0.4-0.2 0.2-0.5 0.2z"/>
		</g>
		<g>
			<path class="s10" d="m635.7 64.7c-4 2.2-7.5 0.7-10.8 3.9q0.3-1.1 0.5-2.2 0.1-1 0-2.1 0-1.1-0.3-2.2-0.3-1.1-0.7-2.1c-0.4-0.9-1.2-5.1-0.9-6 0.2-0.7 4.5-0.5 5.9-1.4 1.1-0.6 3.2-2.2 4.3-2.1 0.1 1.6 0.1 3.1 0.8 4.5 0.2 0.4 1.9 9.3 1.2 9.7z"/>
			<path class="s9" d="m628.7 58.9l-10.8 0.3-2.2 2.5-3.5 13.2v21.1c0 0-4.2 7.4-1.9 13.9 2.5 6.9 11.1-1.3 17.5-0.3 6.5 0.9 16.8 1.8 16.8 1.8l-6.1-22.5 4.8-26.5-6-6.2c0 0-8.6 2.7-8.6 2.7z"/>
			<g>
				<path class="s11" d="m587.3 66.1c-2.2-1.9-3-4.5-1.8-5.9 1.2-1.4 3.9-1 6.1 0.9q0.3 0.3 0.6 0.6 0.3 0.3 0.5 0.6 0.3 0.4 0.5 0.8 0.2 0.3 0.4 0.7l9 8-3.8 4.2-8.5-8.3q-0.5-0.1-0.8-0.3-0.4-0.2-0.8-0.4-0.4-0.1-0.7-0.4-0.4-0.2-0.7-0.5z"/>
				<path class="s9" d="m618.3 59.2l5.9-0.6 5.3 25c0.2 1.1 0.2 2.3 0 3.4-0.2 1.1-0.7 2.2-1.3 3.2-0.7 0.9-1.5 1.8-2.5 2.4-0.9 0.6-2 1-3.1 1.3l-4.3 0.7-27.4-24.1 4-6.6 20.2 12.6c0 0 3.2-17.3 3.2-17.3z"/>
			</g>
			<g>
				<path class="s11" d="m601.2 181.6c0 0-5.4 10.1-5 9.7 0.4-0.4 7 1.9 7 1.9l3.9-10.1z"/>
				<path class="s11" d="m593.2 110.7c0 0-2.8 11.2-2.5 10.7 0.3-0.5 7.2 0.2 7.2 0.2l1.3-10.8c0 0-6-0.1-6-0.1z"/>
				<path class="s4" d="m641.7 108.9c-12.3 1.7-23.4 0.2-32.5-6.9 0 0-6.6 22.2 5.4 24.5 12.1 2.3 25.5-1.7 27.1-5.6 1.5-3.9 0-12 0-12z"/>
				<path class="s4" d="m618.7 115.9l-13.4 31.6-6.2 36.6 8.2 1.9 14.6-33.6 19.8-32.2z"/>
				<path class="s4" d="m617 106.9c0 0-3.1-24.2-9-25.7q-0.9-0.3-1.8-0.4-0.9-0.2-1.9-0.2-0.9-0.1-1.9 0-0.9 0-1.8 0.2-0.8 0.1-1.4 0.4-0.7 0.3-1.2 0.8-0.6 0.5-0.9 1.2-0.3 0.6-0.5 1.3l-5.3 30.2h7.5l2.4-8.2 6.4 11.2c0 0 9.4-10.8 9.4-10.8z"/>
				<path class="s4" d="m597.9 118.5l-7.4-0.8-1.1 4.3c0 0-12.1 10.9-5.9 11.7 6.3 0.8 12.1-3.5 12.1-3.5l8.5-4.9c0 0-3.3-8.8-5.6-8.8-2.3 0-0.6 2-0.6 2z"/>
				<path class="s4" d="m601.8 191.5l-7.4-0.8-1.1 4.3c0 0-12.1 10.9-5.9 11.6 6.2 0.8 12.1-3.5 12.1-3.5l8.5-4.9c0 0-0.6-9.2-2.9-9.2-2.3 0-3.3 2.5-3.3 2.5z"/>
			</g>
			<g>
				<path class="s11" d="m638.8 131.9c-0.9 2.8-3 4.7-4.7 4.1-1.8-0.5-2.6-3.2-1.8-6q0.1-0.4 0.3-0.8 0.2-0.4 0.4-0.8 0.2-0.3 0.4-0.7 0.3-0.3 0.6-0.7l3.6-11.8 5.5 1.8-4.1 11.5q0 0.4 0.1 0.8 0 0.5 0 0.9-0.1 0.4-0.1 0.9-0.1 0.4-0.2 0.8z"/>
				<path class="s9" d="m642.6 59.6l-2.9-0.8q-1 2-1.7 4.2-0.8 2.1-1.2 4.3-0.4 2.2-0.5 4.5-0.1 2.2 0 4.4l1.5 16.8-4.7 29.4 9.1 2.4 7.2-37z"/>
			</g>
			<g>
				<path class="s7" d="m580.9 65.7l-0.3-12q0-0.2 0-0.3 0.1-0.2 0.2-0.3 0.1-0.1 0.2-0.1 0.1-0.1 0.3-0.1l9.5 0.6q0.2 0 0.3 0.1 0.1 0 0.2 0.2 0.1 0.1 0.2 0.2 0 0.2 0 0.3l-1.6 11.9q-0.1 0.2-0.1 0.3-0.1 0.1-0.2 0.2-0.1 0.1-0.2 0.1-0.1 0.1-0.3 0.1l-7.5-0.5q0-0.1-0.1-0.1 0 0 0 0-0.1 0-0.1 0 0 0 0 0-0.1 0-0.2-0.1-0.1-0.1-0.1-0.1-0.1-0.1-0.1-0.2-0.1-0.1-0.1-0.2z"/>
				<path class="s8" d="m580.6 52.5q0.2 0 0.5 0 0-0.1 0-0.1-0.1-0.1-0.1-0.1 0 0 0-0.1 0 0 0-0.1l0.2-0.9q0-0.1 0.1-0.2 0 0 0.1-0.1 0 0 0.1-0.1 0.1 0 0.2 0c1.4-0.2 6.2-0.7 9.3 0.6q0 0.1 0.1 0.1 0 0.1 0.1 0.1 0 0.1 0 0.2 0.1 0.1 0.1 0.1v1q0 0 0 0.1 0 0 0 0.1 0 0-0.1 0 0 0.1 0 0.1 0.4 0.1 0.8 0.2 0 0.1 0.1 0.1 0 0 0.1 0.1 0 0 0 0.1 0 0 0 0.1l0.1 0.4q0 0.1 0 0.2-0.1 0.1-0.1 0.1-0.1 0.1-0.2 0.1-0.1 0.1-0.1 0.1l-11.4-0.8q-0.1 0-0.2-0.1-0.1 0-0.2-0.1 0-0.1 0-0.1 0-0.1 0-0.2l0.1-0.6q0 0 0.1-0.1 0 0 0-0.1 0.1 0 0.1 0 0.1-0.1 0.2-0.1z"/>
			</g>
			<path fill-rule="evenodd" class="s12" d="m627.9 55.9c-5.3 0-9.7-4.3-9.7-9.7 0-5.3 4.4-9.6 9.7-9.6 5.3 0 9.6 4.3 9.6 9.6 0 5.4-4.3 9.7-9.6 9.7z"/>
			<path class="s4" d="m634.5 36.3l0.2-1-2.6-0.5c0 0-3.6-3.3-7.8-0.9-4.2 2.4-6.1 3.7-6.1 3.7l-1.9 1.8 1.5 0.8-1.9 1.2 1.6 0.3-1.4 1.4 2.2 4.4c0 0 0.4-3.9 3.5-3.4 3.1 0.6 7.5-2.9 7.5-2.9l6.7 7.2c0 0 0.1-3.2 1.9-2.9 0 0 2.2-7.6-3.4-9.2z"/>
		</g>
	</g>
</svg>